<svg width="39" height="52" viewBox="0 0 39 52" fill="none" xmlns="http://www.w3.org/2000/svg">
<g clip-path="url(#clip0_772_2577)">
<path d="M10.2062 41.1909H3.0011V42.4478H10.2062V41.1909Z" fill="white"/>
<path d="M35.2985 41.1909H25.9537V42.4478H35.2985V41.1909Z" fill="white"/>
<path d="M20.1394 41.1909H16.1432V42.4478H20.1394V41.1909Z" fill="white"/>
<path d="M3.30927 23.3245C3.10382 23.8846 3.0011 24.403 3.0011 24.8785C3.0011 25.5616 3.18203 26.16 3.54331 26.6743C3.90459 27.1885 4.38843 27.584 4.99368 27.8599C5.59892 28.1365 6.25552 28.2742 6.96349 28.2742H13.1525V22.7484H11.4284V26.5701H6.96349C6.22517 26.5701 5.6637 26.3954 5.27908 26.0464C4.89446 25.6975 4.70244 25.208 4.70244 24.5784C4.70244 24.2253 4.77481 23.807 4.91955 23.3233H3.30927V23.3245Z" fill="white"/>
<path d="M7.61431 21.6552C7.80458 21.4633 7.89971 21.2333 7.89971 20.9644C7.89971 20.6955 7.80458 20.4654 7.61431 20.2736C7.42404 20.0817 7.19583 19.9858 6.9291 19.9858C6.66238 19.9858 6.43417 20.0817 6.2439 20.2736C6.05363 20.4654 5.9585 20.6955 5.9585 20.9644C5.9585 21.2333 6.05363 21.4633 6.2439 21.6552C6.43417 21.847 6.66238 21.9429 6.9291 21.9429C7.19583 21.9429 7.42404 21.847 7.61431 21.6552Z" fill="white"/>
<path d="M9.8864 21.6552C10.0767 21.4633 10.1718 21.2333 10.1718 20.9644C10.1718 20.6955 10.0767 20.4654 9.8864 20.2736C9.69613 20.0817 9.46793 19.9858 9.2012 19.9858C8.93447 19.9858 8.70626 20.0817 8.516 20.2736C8.32573 20.4654 8.23059 20.6955 8.23059 20.9644C8.23059 21.2333 8.32573 21.4633 8.516 21.6552C8.70626 21.847 8.93447 21.9429 9.2012 21.9429C9.46793 21.9429 9.69613 21.847 9.8864 21.6552Z" fill="white"/>
<path d="M19.9462 30.9685C20.1365 30.7767 20.2316 30.5466 20.2316 30.2777C20.2316 30.0088 20.1365 29.7787 19.9462 29.5869C19.7559 29.3951 19.5277 29.2992 19.261 29.2992C18.9943 29.2992 18.7661 29.3951 18.5758 29.5869C18.3855 29.7787 18.2904 30.0088 18.2904 30.2777C18.2904 30.5466 18.3855 30.7767 18.5758 30.9685C18.7661 31.1603 18.9943 31.2562 19.261 31.2562C19.5277 31.2562 19.7559 31.1603 19.9462 30.9685Z" fill="white"/>
<path d="M28.7161 21.9889C27.8254 21.9889 27.0871 22.1383 26.5005 22.4378C25.914 22.7373 25.4844 23.1286 25.2101 23.6123C24.9358 24.096 24.7992 24.6179 24.7992 25.178C24.7992 25.7382 24.9323 26.2413 25.199 26.7091C25.4651 27.1775 25.89 27.5552 26.4719 27.8429C27.0544 28.1307 27.7945 28.2748 28.6927 28.2748H29.1725C29.0581 28.6585 28.8468 28.9403 28.5386 29.121C28.2305 29.301 27.8137 29.3916 27.2885 29.3916C26.9231 29.3916 26.4929 29.3569 25.998 29.2881V30.9686C26.5461 31.068 27.0603 31.118 27.5394 31.118C28.5217 31.118 29.298 30.878 29.8688 30.3984C30.4396 29.9188 30.7939 29.2104 30.9304 28.2742H35.2926V22.7485H33.5685V26.5702H30.9876V21.9883H28.7155L28.7161 21.9889ZM29.2869 26.5708H28.7161C27.9165 26.5708 27.3416 26.4366 26.992 26.1677C26.6418 25.8994 26.4667 25.5617 26.4667 25.1545C26.4667 24.7473 26.64 24.4084 26.9861 24.136C27.3322 23.8635 27.9013 23.727 28.6933 23.727H29.2869V26.5702V26.5708Z" fill="white"/>
<path d="M33.2148 29.5869C33.0246 29.7787 32.9294 30.0088 32.9294 30.2777C32.9294 30.5466 33.0246 30.7767 33.2148 30.9685C33.4051 31.1603 33.6333 31.2562 33.9001 31.2562C34.1668 31.2562 34.395 31.1603 34.5853 30.9685C34.7755 30.7767 34.8707 30.5466 34.8707 30.2777C34.8707 30.0088 34.7755 29.7787 34.5853 29.5869C34.395 29.3951 34.1668 29.2992 33.9001 29.2992C33.6333 29.2992 33.4051 29.3951 33.2148 29.5869Z" fill="white"/>
<path d="M5.95734 32.726C6.22757 32.726 6.45986 32.629 6.65305 32.4336C6.84624 32.2388 6.94312 32.0052 6.94312 31.7322C6.94312 31.4592 6.84624 31.2256 6.65305 31.0308C6.45986 30.8361 6.22815 30.7384 5.95734 30.7384C5.68653 30.7384 5.45482 30.8361 5.26163 31.0308C5.06844 31.2256 4.97156 31.4592 4.97156 31.7322C4.97156 32.0052 5.06786 32.2388 5.26163 32.4336C5.45482 32.6284 5.68653 32.726 5.95734 32.726Z" fill="white"/>
<path d="M3.29056 32.4342C3.48375 32.629 3.71546 32.7267 3.98627 32.7267C4.25708 32.7267 4.48879 32.6296 4.68198 32.4342C4.87517 32.2395 4.97205 32.0059 4.97205 31.7328C4.97205 31.4598 4.87517 31.2262 4.68198 31.0315C4.48879 30.8367 4.25708 30.739 3.98627 30.739C3.71546 30.739 3.48375 30.8367 3.29056 31.0315C3.09737 31.2262 3.00049 31.4598 3.00049 31.7328C3.00049 32.0059 3.09679 32.2395 3.29056 32.4342Z" fill="white"/>
<path d="M12.1288 40.8262C11.858 40.8262 11.6263 40.9238 11.4331 41.1186C11.24 41.3134 11.1431 41.547 11.1431 41.82C11.1431 42.093 11.2394 42.3266 11.4331 42.5214C11.6263 42.7161 11.858 42.8138 12.1288 42.8138C12.3997 42.8138 12.6314 42.7167 12.8246 42.5214C13.0177 42.3266 13.1146 42.093 13.1146 41.82C13.1146 41.547 13.0177 41.3134 12.8246 41.1186C12.6314 40.9238 12.3997 40.8262 12.1288 40.8262Z" fill="white"/>
<path d="M14.0998 40.8262C13.829 40.8262 13.5973 40.9238 13.4041 41.1186C13.2109 41.3134 13.114 41.547 13.114 41.82C13.114 42.093 13.2103 42.3266 13.4041 42.5214C13.5973 42.7161 13.829 42.8138 14.0998 42.8138C14.3706 42.8138 14.6023 42.7167 14.7955 42.5214C14.9887 42.3266 15.0856 42.093 15.0856 41.82C15.0856 41.547 14.9887 41.3134 14.7955 41.1186C14.6023 40.9238 14.3706 40.8262 14.0998 40.8262Z" fill="white"/>
<path d="M16.3387 33.5446C16.5319 33.3498 16.6288 33.1162 16.6288 32.8432C16.6288 32.5702 16.5319 32.3366 16.3387 32.1418C16.1455 31.947 15.9138 31.8494 15.643 31.8494C15.3722 31.8494 15.1405 31.947 14.9473 32.1418C14.7541 32.3366 14.6572 32.5702 14.6572 32.8432C14.6572 33.1162 14.7535 33.3498 14.9473 33.5446C15.1405 33.7393 15.3722 33.837 15.643 33.837C15.9138 33.837 16.1455 33.7399 16.3387 33.5446Z" fill="white"/>
<path d="M33.3625 33.8424C32.7672 33.5346 32.1106 33.3805 31.3916 33.3805C30.6188 33.3805 29.9499 33.5246 29.3861 33.8129C28.8218 34.1013 28.3776 34.5261 28.0531 35.0868V34.1754H26.3144V38.0554H25.7115C25.0543 38.0554 24.5827 37.9112 24.2973 37.6229C24.0498 37.3581 23.9261 37.0033 23.9261 36.559V34.1748H22.1757V36.559C22.1757 37.058 22.0403 37.4317 21.7701 37.6811C21.4993 37.9306 21.1514 38.0554 20.7265 38.0554C20.0694 38.0554 19.5983 37.9112 19.3124 37.6229C19.0649 37.3581 18.9412 37.0033 18.9412 36.559V34.1748H17.1908V36.559C17.1908 37.058 17.0554 37.4317 16.7852 37.6811C16.5143 37.9306 16.1665 38.0554 15.7416 38.0554C15.0844 38.0554 14.6134 37.9112 14.3274 37.6229C14.0799 37.3581 13.9562 37.0033 13.9562 36.559V34.1748H12.2059V36.559C12.2059 37.058 12.0704 37.4317 11.8002 37.6811C11.5294 37.9306 11.1821 38.0554 10.7572 38.0554C10.3323 38.0554 9.98624 37.9306 9.71951 37.6811C9.45278 37.4317 9.31971 37.058 9.31971 36.559V32.8427H7.56934V33.3805C7.34522 33.3493 7.09425 33.334 6.81585 33.334C6.08921 33.334 5.43611 33.4722 4.85654 33.7488C4.27698 34.0254 3.8229 34.4208 3.49431 34.935C3.16571 35.4493 3.00171 36.0454 3.00171 36.7232C3.00171 37.2687 3.11961 37.7576 3.3554 38.1901C3.59119 38.6226 3.90403 38.9574 4.29449 39.1951C4.68495 39.4328 5.10401 39.5517 5.55225 39.5517C6.66527 39.5517 7.43044 39.0568 7.84775 38.0671C8.07945 38.6202 8.44482 39.0451 8.94325 39.341C9.44169 39.637 10.0464 39.7853 10.7572 39.7853C11.2983 39.7853 11.7792 39.6958 12.2006 39.5164C12.622 39.3375 12.9716 39.0839 13.25 38.7567C13.6825 39.4422 14.5136 39.7853 15.7422 39.7853C16.2832 39.7853 16.7642 39.6958 17.1855 39.5164C17.6069 39.3375 17.9565 39.0839 18.2349 38.7567C18.6674 39.4422 19.4985 39.7853 20.7271 39.7853C21.2682 39.7853 21.7491 39.6958 22.1705 39.5164C22.5919 39.3375 22.9415 39.0839 23.2199 38.7567C23.6524 39.4422 24.4835 39.7853 25.7121 39.7853H35.2997V36.9103C35.2997 36.256 35.1257 35.6582 34.7779 35.1163C34.43 34.5749 33.9584 34.1501 33.3637 33.8424H33.3625ZM7.56876 35.8471C7.56876 36.4625 7.42752 36.9497 7.14562 37.3081C6.86313 37.6664 6.48668 37.8459 6.01509 37.8459C5.6363 37.8459 5.32697 37.7464 5.08767 37.5482C4.84779 37.3493 4.72814 37.0668 4.72814 36.7008C4.72814 36.1789 4.93125 35.7641 5.33689 35.4564C5.74252 35.1486 6.25847 34.9945 6.88472 34.9945C7.0855 34.9945 7.31371 35.0139 7.56876 35.0527V35.8477V35.8471ZM33.5481 38.056H28.0414V37.9506C28.0648 37.3975 28.2346 36.9086 28.5515 36.4837C28.8684 36.0589 29.2776 35.73 29.7807 35.4964C30.2826 35.2628 30.8202 35.1457 31.3921 35.1457C32.0569 35.1457 32.5822 35.3075 32.9686 35.6305C33.355 35.9542 33.5481 36.3808 33.5481 36.9103V38.056Z" fill="white"/>
<path d="M22.0275 40.8262C21.7567 40.8262 21.525 40.9238 21.3318 41.1186C21.1386 41.3134 21.0417 41.547 21.0417 41.82C21.0417 42.093 21.1381 42.3266 21.3318 42.5214C21.525 42.7161 21.7567 42.8138 22.0275 42.8138C22.2983 42.8138 22.5301 42.7167 22.7232 42.5214C22.9164 42.3266 23.0133 42.093 23.0133 41.82C23.0133 41.547 22.9164 41.3134 22.7232 41.1186C22.5301 40.9238 22.2983 40.8262 22.0275 40.8262Z" fill="white"/>
<path d="M23.9979 40.8262C23.7271 40.8262 23.4953 40.9238 23.3022 41.1186C23.109 41.3134 23.0121 41.547 23.0121 41.82C23.0121 42.093 23.1084 42.3266 23.3022 42.5214C23.4953 42.7161 23.7271 42.8138 23.9979 42.8138C24.2687 42.8138 24.5004 42.7167 24.6936 42.5214C24.8868 42.3266 24.9837 42.093 24.9837 41.82C24.9837 41.547 24.8868 41.3134 24.6936 41.1186C24.5004 40.9238 24.2687 40.8262 23.9979 40.8262Z" fill="white"/>
<path d="M34.6419 14.7555C28.1313 14.7555 27.0446 13.5122 26.1422 13.0109H12.859C12.8257 13.0303 12.7919 13.0497 12.7568 13.0703C11.865 13.6034 10.6271 14.7549 4.3593 14.7549C2.79337 14.7549 0.0852394 13.2197 0.000610352 13.1733C0.0531387 13.2668 1.95116 16.569 4.72817 17.8023C4.81455 17.8411 4.90735 17.8782 5.00598 17.9117C5.66726 18.1453 6.65012 18.2948 8.50204 18.3771H14.363V28.2736H20.6548V22.7478H18.9307V26.5696H16.0877V18.3771H21.8653V28.2736H23.5894V18.3771H30.4974C32.3493 18.2948 33.3316 18.1453 33.9947 17.9117C34.0939 17.8782 34.1849 17.8411 34.2725 17.8023C37.0495 16.5684 38.9475 13.2662 39 13.1733C38.9154 13.2197 36.2073 14.7549 34.6413 14.7549L34.6419 14.7555Z" fill="white"/>
<path d="M9.43758 11.0544C9.94886 11.3451 10.4508 11.531 12.3115 11.6087H26.6961C28.5497 11.5304 29.0517 11.3433 29.563 11.0544C31.6898 9.8529 31.6898 6.79906 31.6898 6.79906C31.6898 6.79906 30.4005 8.21477 29.2484 8.21477C20.175 8.21477 19.8475 0.331862 19.8475 0.246543C19.8475 0.111209 19.7372 0 19.603 0H19.397C19.2627 0 19.1542 0.111209 19.1542 0.246543C19.1542 0.331862 18.825 8.21477 9.75333 8.21477C8.60004 8.21477 7.31018 6.79906 7.31018 6.79906C7.31018 6.79906 7.31018 9.8529 9.43816 11.0544H9.43758Z" fill="white"/>
<path d="M3.48375 48.0641C3.66468 48.1765 3.9244 48.233 4.25592 48.233C4.48296 48.233 4.76544 48.203 5.09637 48.1441L5.16057 48.1329L5.14131 47.6605L5.05902 47.6728C4.42984 47.7693 4.03238 47.7599 3.84503 47.6452C3.74639 47.5845 3.68219 47.4957 3.65009 47.3739C3.61449 47.2409 3.59698 47.0467 3.59698 46.7955C3.59406 46.5042 3.61157 46.2806 3.64834 46.1312C3.68219 45.9923 3.74639 45.8958 3.84328 45.8352C3.94425 45.7722 4.10125 45.7405 4.30961 45.7405C4.51797 45.7405 4.78003 45.7628 5.05843 45.8076L5.14073 45.8205L5.15999 45.3568L5.09754 45.3445C4.33996 45.1956 3.79659 45.2174 3.48142 45.4098C3.30107 45.5204 3.17383 45.6869 3.10263 45.9058C3.03492 46.1147 3.00049 46.3971 3.00049 46.7443C3.00049 47.0915 3.03376 47.3568 3.10029 47.5645C3.16975 47.7823 3.29873 47.9505 3.48317 48.0653L3.48375 48.0641Z" fill="white"/>
<path d="M6.87716 46.6825C6.89933 46.7661 6.91042 46.8932 6.91042 47.0591V48.1888H7.47481V47.0509C7.47481 46.8049 7.45088 46.6049 7.40419 46.4566C7.354 46.2983 7.26645 46.18 7.1433 46.1059C7.02482 46.0335 6.8614 45.997 6.6577 45.997C6.54214 45.997 6.42833 46.01 6.31919 46.0347C6.24039 46.0529 6.15343 46.0794 6.06121 46.1141V45.1938H5.49683V48.1888H6.06121V46.5625L6.08456 46.5548C6.24098 46.5066 6.39273 46.4819 6.53689 46.4819C6.64428 46.4819 6.72541 46.4983 6.77735 46.5307C6.82521 46.5607 6.8579 46.6101 6.87657 46.6819L6.87716 46.6825Z" fill="white"/>
<path d="M8.48565 46.0411H7.92126V48.1888H8.48565V46.0411Z" fill="white"/>
<path d="M8.48157 45.2462H7.92126V45.7993H8.48157V45.2462Z" fill="white"/>
<path d="M10.2371 46.5319C10.2827 46.5631 10.3136 46.6137 10.3317 46.6873C10.3527 46.7732 10.3632 46.8979 10.3632 47.0591V48.1889H10.9276V47.0509C10.9276 46.8043 10.9037 46.6049 10.857 46.4584C10.8068 46.3018 10.7198 46.1836 10.5973 46.1077C10.4788 46.0341 10.3165 45.9965 10.1157 45.9965C9.99434 45.9965 9.87645 46.0106 9.76672 46.0388C9.68793 46.0588 9.60155 46.0894 9.5105 46.13V46.0406H8.9502V48.1883H9.51458V46.5807L9.54085 46.5696C9.70485 46.5113 9.86361 46.4819 10.0124 46.4819C10.1134 46.4819 10.1887 46.4984 10.2371 46.5313V46.5319Z" fill="white"/>
<path d="M12.2981 48.233C12.5152 48.233 12.8035 48.206 13.1549 48.1524L13.2203 48.1424L13.2068 47.7088L13.0037 47.7282C12.9121 47.7358 12.8082 47.7423 12.6944 47.7458C12.3746 47.757 12.165 47.7535 12.0442 47.7052C11.9748 47.6776 11.9263 47.634 11.8954 47.5717C11.8685 47.5175 11.8516 47.4416 11.844 47.3463H13.2599L13.2938 46.9997C13.2938 46.3348 12.9617 45.9977 12.3069 45.9977C11.9578 45.9977 11.6946 46.0971 11.5242 46.2931C11.3561 46.4861 11.2709 46.7803 11.2709 47.1674C11.2709 47.5293 11.3514 47.8 11.5096 47.9718C11.6695 48.1454 11.9345 48.2336 12.2975 48.2336L12.2981 48.233ZM11.8388 46.9044C11.8499 46.7556 11.8872 46.6455 11.9497 46.5767C12.0214 46.4984 12.1411 46.459 12.3069 46.459C12.4621 46.459 12.5718 46.4961 12.6325 46.5684C12.688 46.6343 12.7201 46.7473 12.7271 46.905H11.8382L11.8388 46.9044Z" fill="white"/>
<path d="M13.8804 47.225C13.9848 47.2638 14.1261 47.2962 14.3 47.3209L14.408 47.3368C14.5206 47.3521 14.6076 47.3686 14.6665 47.3851C14.7179 47.3992 14.7599 47.421 14.7915 47.4486C14.8154 47.4698 14.8271 47.5033 14.8271 47.5504C14.8271 47.6187 14.802 47.6622 14.7459 47.6922C14.6765 47.7287 14.5679 47.7475 14.4226 47.7475C14.2773 47.7475 14.0134 47.7246 13.658 47.6804L13.5792 47.6704L13.5529 48.1382L13.7537 48.1682C14.0339 48.2112 14.2644 48.233 14.4401 48.233C14.7523 48.233 14.9899 48.1765 15.1451 48.0653C15.3086 47.9482 15.3909 47.7646 15.3909 47.5186C15.3909 47.3762 15.3617 47.2603 15.3045 47.1732C15.2467 47.0856 15.1597 47.0191 15.0453 46.9749C14.9414 46.9349 14.7973 46.899 14.6175 46.869C14.5533 46.8584 14.5107 46.8514 14.492 46.849C14.3817 46.8308 14.2959 46.8137 14.237 46.7984C14.1874 46.7855 14.1465 46.7655 14.1168 46.7402C14.0952 46.7213 14.0847 46.6943 14.0847 46.6554C14.0847 46.6125 14.0847 46.4824 14.4664 46.4824C14.6409 46.4824 14.8965 46.5036 15.2263 46.546L15.3074 46.5566L15.3208 46.0982L15.1259 46.0623C14.8551 46.0217 14.6257 46.0017 14.4442 46.0017C13.8313 46.0017 13.5203 46.2353 13.5203 46.696C13.5203 46.8372 13.5524 46.952 13.6154 47.0367C13.6778 47.1203 13.7666 47.1838 13.8792 47.2256L13.8804 47.225Z" fill="white"/>
<path d="M16.6638 45.9971C16.3148 45.9971 16.0515 46.0965 15.8811 46.2925C15.713 46.4855 15.6278 46.7797 15.6278 47.1668C15.6278 47.5287 15.7084 47.7994 15.8665 47.9712C16.0264 48.1448 16.292 48.233 16.6544 48.233C16.8716 48.233 17.1599 48.206 17.5112 48.1524L17.5766 48.1424L17.5632 47.7088L17.3601 47.7282C17.2696 47.7358 17.1651 47.7423 17.0507 47.7458C16.7309 47.757 16.522 47.7535 16.4006 47.7052C16.3311 47.6776 16.2827 47.6334 16.2517 47.5717C16.2249 47.5175 16.208 47.4416 16.2004 47.3463H17.6169L17.6507 47.0021V46.9997C17.6507 46.3348 17.3186 45.9977 16.6638 45.9977V45.9971ZM17.084 46.9044H16.1951C16.2062 46.7555 16.2436 46.6455 16.3066 46.5767C16.3784 46.4984 16.498 46.459 16.6638 46.459C16.819 46.459 16.9288 46.496 16.9895 46.5684C17.0449 46.6343 17.077 46.7473 17.084 46.9044Z" fill="white"/>
<path d="M4.12645 49.8828C4.28345 49.8181 4.521 49.7852 4.83267 49.7852C5.18169 49.7852 5.61242 49.8064 6.11261 49.8487L6.16163 49.8528L6.1949 49.4816L5.93168 49.451C5.49802 49.4039 5.09122 49.3798 4.72236 49.3798C4.31322 49.3798 3.9817 49.4257 3.73774 49.5157C3.48852 49.6081 3.30526 49.7522 3.1932 49.9435C3.08289 50.1323 3.02686 50.3824 3.02686 50.6854C3.02686 50.9885 3.08172 51.2385 3.19028 51.4286C3.3 51.6216 3.48444 51.7669 3.73832 51.8605C3.98637 51.9517 4.32372 51.9982 4.74103 51.9982C5.13383 51.9982 5.60658 51.9693 6.14704 51.9129L6.1914 51.9081V50.5925H4.90037V50.9938H5.50853V51.5657C5.29316 51.5863 5.05387 51.5963 4.79648 51.5963C4.51283 51.5963 4.29162 51.5663 4.13812 51.5074C3.98929 51.4504 3.8889 51.3627 3.83054 51.2397C3.77042 51.1138 3.74007 50.9355 3.74007 50.7096C3.74007 50.4836 3.76751 50.2889 3.82237 50.1594C3.8749 50.0347 3.9747 49.9435 4.12762 49.8811L4.12645 49.8828Z" fill="white"/>
<path d="M9.27535 51.5987C9.24208 51.581 9.22399 51.5581 9.21874 51.5345V50.6796C9.21874 50.4601 9.12769 50.2971 8.94792 50.1947C8.77516 50.0959 8.5096 50.0482 8.13723 50.0482C7.76487 50.0482 7.35514 50.0782 6.92033 50.1377L6.87422 50.1441L6.8999 50.4813L6.94892 50.4783C7.396 50.4501 7.7958 50.436 8.13782 50.436C8.27964 50.436 8.38704 50.4572 8.45649 50.4983C8.51894 50.5354 8.54871 50.5948 8.54871 50.6808V50.772L7.72343 50.8155C7.37324 50.8349 7.12344 50.8861 6.96001 50.972C6.78725 51.0626 6.69971 51.2068 6.69971 51.4016C6.69971 51.5963 6.78434 51.7481 6.95068 51.8523C7.10943 51.9517 7.34114 52.0017 7.63996 52.0017C7.9849 52.0017 8.33392 51.9564 8.67886 51.8664C8.77283 51.9117 8.8808 51.9452 9.00103 51.967C9.12652 51.99 9.28002 52.0017 9.45803 52.0017H9.50414L9.52924 51.651L9.48079 51.6463C9.38566 51.6375 9.3162 51.6222 9.27535 51.6004V51.5987ZM8.54871 51.1121V51.5398L8.45999 51.5569C8.23062 51.601 7.99015 51.6234 7.74444 51.6234C7.41993 51.6234 7.38258 51.4898 7.38258 51.3892C7.38258 51.3162 7.41117 51.265 7.47246 51.228C7.54074 51.1862 7.65222 51.1609 7.8028 51.1515L8.54929 51.1115L8.54871 51.1121Z" fill="white"/>
<path d="M11.1413 51.6052C11.0316 51.6052 10.9528 51.5922 10.9072 51.5669C10.8658 51.544 10.8407 51.5122 10.8296 51.4704C10.8162 51.4192 10.8098 51.3392 10.8098 51.2327V50.4701H11.7127V50.0865H10.8098V49.5581H10.1397V50.0865H9.72827V50.4701H10.1397V51.2933C10.1397 51.4693 10.1689 51.6105 10.2261 51.7117C10.2851 51.817 10.3825 51.8929 10.515 51.9365C10.6405 51.9782 10.8162 51.9994 11.0374 51.9994C11.1938 51.9994 11.4185 51.9847 11.7057 51.9565L11.757 51.9512L11.7068 51.5852L11.1419 51.6046L11.1413 51.6052Z" fill="white"/>
<path d="M13.4018 50.0477C12.9424 50.0477 12.5969 50.1313 12.374 50.2972C12.1464 50.4661 12.0314 50.7261 12.0314 51.0704C12.0314 51.3916 12.1399 51.6299 12.3535 51.78C12.5619 51.9259 12.9103 52 13.3895 52C13.6843 52 14.0765 51.9759 14.5557 51.9289L14.6023 51.9241L14.5854 51.5705L14.3636 51.584C14.2376 51.5911 14.0934 51.5964 13.9352 51.5999C13.5086 51.6093 13.1969 51.6082 13.0148 51.5605C12.9074 51.5329 12.8298 51.4881 12.7837 51.4275C12.744 51.3757 12.7201 51.3034 12.7113 51.2116H14.6607L14.7045 50.9203C14.7045 50.3407 14.2662 50.0471 13.4018 50.0471V50.0477ZM12.8648 50.5414C12.9745 50.4637 13.1549 50.4243 13.4018 50.4243C13.6352 50.4243 13.8016 50.4614 13.8967 50.5349C13.979 50.5979 14.0245 50.705 14.0327 50.8532H12.7043C12.7172 50.7108 12.7697 50.6085 12.8648 50.5414Z" fill="white"/>
<path d="M17.1394 50.9133C17.0005 50.8786 16.8074 50.848 16.5646 50.8215C16.4782 50.8121 16.4198 50.8062 16.3924 50.8038C16.2389 50.7873 16.1192 50.772 16.0358 50.7579C15.9576 50.7444 15.8934 50.7244 15.8455 50.6979C15.7976 50.6714 15.7912 50.6397 15.7912 50.6155C15.7912 50.5061 15.9961 50.4455 16.3684 50.4455C16.6112 50.4455 16.9649 50.4643 17.4208 50.502L17.4721 50.5061L17.4885 50.1313L17.2638 50.1042C16.8955 50.0689 16.5838 50.0507 16.3375 50.0507C15.5303 50.0507 15.1206 50.2525 15.1206 50.6508C15.1206 50.7768 15.1638 50.878 15.2484 50.9515C15.3278 51.0204 15.4416 51.0727 15.5858 51.1074C15.7247 51.141 15.9138 51.1686 16.1484 51.1904L16.2961 51.2045C16.4537 51.2186 16.5762 51.2334 16.6603 51.2481C16.7402 51.2622 16.8062 51.2846 16.8564 51.3134C16.8966 51.3363 16.9142 51.3663 16.9142 51.4105C16.9142 51.4499 16.9002 51.507 16.7817 51.5476C16.6766 51.5835 16.5167 51.6017 16.306 51.6017C16.0953 51.6017 15.7387 51.5817 15.2473 51.5417L15.1982 51.5376L15.165 51.92L15.3978 51.9424C15.779 51.9801 16.0924 51.9995 16.3299 51.9995C16.7449 51.9995 17.0577 51.9518 17.2597 51.8583C17.4745 51.7588 17.5836 51.5988 17.5836 51.3816C17.5836 51.2545 17.5445 51.1522 17.4675 51.0763C17.3939 51.0039 17.283 50.9492 17.1377 50.9127L17.1394 50.9133Z" fill="white"/>
<path d="M22.6035 45.3322H22.171V46.3589H20.0897V49.6917H20.5222V49.1456H22.171V51.8711H22.6035V49.1456H24.2523V49.6917H24.6848V46.3589H22.6035V45.3322ZM24.2523 48.1271V48.6296H22.6035V46.875H24.2523V48.1265V48.1271ZM20.5222 48.1271V46.8756H22.171V48.6302H20.5222V48.1277V48.1271Z" fill="white"/>
<path d="M31.255 46.4371H30.8225V51.8717H31.255V46.4371Z" fill="white"/>
<path d="M25.3765 50.3071V51.8723H25.8089V51.348H29.6505V51.8723H30.083V45.3021H25.377V50.3071H25.3765ZM25.8089 50.3071V45.8182H29.6505V50.8314H25.8089V50.3071Z" fill="white"/>
<path d="M32.3417 45.3021V45.8182H34.9156V50.812C34.9156 51.0544 34.7621 51.2515 34.5735 51.2515H33.6222V51.7676H34.5735C35.0008 51.7676 35.3481 51.3386 35.3481 50.812V45.3021H32.3417Z" fill="white"/>
<path d="M26.1393 46.9362H27.5132V47.85H26.1393V48.366H27.5132V49.5658H26.1393V50.0824H29.2571V49.5658H27.9457V48.366H29.2571V47.85H27.9457V46.9362H29.2571V46.4202H26.1393V46.9362Z" fill="white"/>
<path d="M28.733 49.4398L29.0038 49.1021L28.4797 48.4478L28.2095 48.7855L28.733 49.4398Z" fill="white"/>
<path d="M31.1411 45.654L31.8608 46.5525L32.1602 46.1789L31.4405 45.2798L31.1411 45.654Z" fill="white"/>
</g>
<defs>
<clipPath id="clip0_772_2577">
<rect width="39" height="52" fill="white"/>
</clipPath>
</defs>
</svg>
