<svg width="36" height="27" viewBox="0 0 36 27" fill="none" xmlns="http://www.w3.org/2000/svg">
<path d="M34.0696 11.4487C34.9006 12.5337 34.9006 14.0012 34.0696 15.0862C31.4528 18.5018 25.175 25.5349 17.8464 25.5349C10.5179 25.5349 4.24009 18.5018 1.62337 15.0862C0.79222 14.0012 0.792203 12.5337 1.62336 11.4487C4.24009 8.03311 10.5179 1 17.8464 1C25.175 1 31.4528 8.03311 34.0696 11.4487Z" stroke="#BD3E1E" stroke-width="2" stroke-linecap="round" stroke-linejoin="round"/>
<path d="M17.8463 18.5249C20.7499 18.5249 23.1037 16.1711 23.1037 13.2675C23.1037 10.3639 20.7499 8.01001 17.8463 8.01001C14.9427 8.01001 12.5888 10.3639 12.5888 13.2675C12.5888 16.1711 14.9427 18.5249 17.8463 18.5249Z" stroke="#BD3E1E" stroke-width="2" stroke-linecap="round" stroke-linejoin="round"/>
</svg>
