<svg width="37" height="41" viewBox="0 0 37 41" fill="none" xmlns="http://www.w3.org/2000/svg">
<g filter="url(#filter0_d_514_3604)">
<path d="M7.51752 19.1394C7.51752 17.1028 7.51752 16.0845 7.93018 15.1894C8.34283 14.2943 9.1178 13.6316 10.6677 12.3061L12.1713 11.0204C14.9728 8.62473 16.3735 7.42688 18.0421 7.42688C19.7106 7.42688 21.1114 8.62473 23.9129 11.0204L25.4164 12.3061C26.9663 13.6316 27.7413 14.2943 28.1539 15.1894C28.5666 16.0845 28.5666 17.1028 28.5666 19.1394V25.5C28.5666 28.3285 28.5666 29.7427 27.6859 30.6214C26.8051 31.5 25.3876 31.5 22.5526 31.5H13.5315C10.6965 31.5 9.27899 31.5 8.39826 30.6214C7.51752 29.7427 7.51752 28.3285 7.51752 25.5V19.1394Z" stroke="#BD3E1E" stroke-width="2"/>
<path d="M21.8008 31.5V23.5C21.8008 22.9477 21.3531 22.5 20.8008 22.5H15.2833C14.731 22.5 14.2833 22.9477 14.2833 23.5V31.5" stroke="#BD3E1E" stroke-width="2" stroke-linecap="round" stroke-linejoin="round"/>
</g>
<defs>
<filter id="filter0_d_514_3604" x="-4" y="0" width="44.0841" height="44" filterUnits="userSpaceOnUse" color-interpolation-filters="sRGB">
<feFlood flood-opacity="0" result="BackgroundImageFix"/>
<feColorMatrix in="SourceAlpha" type="matrix" values="0 0 0 0 0 0 0 0 0 0 0 0 0 0 0 0 0 0 127 0" result="hardAlpha"/>
<feOffset dy="4"/>
<feGaussianBlur stdDeviation="2"/>
<feComposite in2="hardAlpha" operator="out"/>
<feColorMatrix type="matrix" values="0 0 0 0 0 0 0 0 0 0 0 0 0 0 0 0 0 0 0.25 0"/>
<feBlend mode="normal" in2="BackgroundImageFix" result="effect1_dropShadow_514_3604"/>
<feBlend mode="normal" in="SourceGraphic" in2="effect1_dropShadow_514_3604" result="shape"/>
</filter>
</defs>
</svg>
