<svg width="350" height="414" viewBox="0 0 350 414" fill="none" xmlns="http://www.w3.org/2000/svg">
<g clip-path="url(#clip0_502_414)">
<path d="M92.5475 225.535L93.8146 216.157L95.8138 201.337L93.7938 216.251L92.5319 225.546C92.5319 225.546 92.5371 225.54 92.5423 225.54L92.5475 225.535Z" fill="#AF9874"/>
<path d="M175.005 46.5422C166.427 52.3952 151.279 63.0804 134.137 76.7129C110.198 95.7401 89.8628 114.47 73.6973 132.383C61.2916 146.125 51.4251 159.346 44.3212 171.724C44.3472 171.765 44.3732 171.818 44.4043 171.859C45.0898 173.046 45.796 174.244 46.5282 175.447C46.793 175.03 47.0735 174.614 47.3539 174.197C84.161 118.824 157.386 66.7515 180.858 50.8694C180.925 50.8174 181.003 50.7757 181.07 50.734C179.97 49.9634 178.915 49.2292 177.908 48.5366C176.89 47.8336 175.919 47.1671 175 46.5422H175.005Z" fill="#AF9874"/>
<path d="M257.536 225.535L254.171 201.207L254.077 200.52L253.703 197.801L253.257 194.474L250.608 174.858L249.918 169.735L246.485 144.292L224.997 180.675V184.112C224.997 189.324 224.322 194.37 223.065 199.15L218.978 197.541C220.059 193.266 220.645 188.767 220.645 184.112V148.968L211.122 137.278H187.79L175.093 151.244L162.397 137.278H139.07L129.536 148.984V184.112C129.536 188.751 130.108 193.245 131.172 197.51L127.096 199.119C125.86 194.344 125.185 189.314 125.185 184.112V181.008L103.504 144.292L100.072 169.735L99.3761 174.858L96.7122 194.599L96.2604 198.005L95.9852 200.056L95.8138 201.332L93.8145 216.152L92.5475 225.53C92.5475 225.53 92.5423 225.53 92.5371 225.535L92.2723 227.493C95.8294 226.774 99.3709 226.129 102.902 225.53C114.96 223.489 126.841 222.088 138.453 221.208C138.338 221.083 138.234 220.953 138.131 220.823C137.876 220.515 137.627 220.213 137.378 219.901C137.243 219.734 137.113 219.573 136.978 219.396C136.853 219.234 136.723 219.057 136.599 218.891C136.438 218.688 136.282 218.474 136.131 218.261C135.965 218.037 135.794 217.808 135.638 217.584C135.259 217.053 134.89 216.511 134.537 215.964C134.34 215.678 134.158 215.386 133.971 215.1C133.717 214.694 133.467 214.293 133.223 213.881C132.979 213.475 132.74 213.064 132.507 212.647C132.418 212.491 132.341 212.335 132.252 212.184C132.252 212.179 132.247 212.179 132.247 212.173C131.728 211.215 131.229 210.236 130.762 209.242C130.601 208.914 130.445 208.58 130.295 208.247H130.3L134.625 207.242C135.446 208.976 136.339 210.648 137.32 212.257C137.58 212.678 137.84 213.095 138.115 213.506C138.738 214.454 139.387 215.381 140.073 216.287C140.26 216.537 140.447 216.787 140.644 217.027C140.904 217.365 141.179 217.698 141.454 218.032C141.636 218.255 141.823 218.474 142.02 218.693C142.243 218.958 142.472 219.229 142.721 219.49C142.944 219.745 143.173 220 143.417 220.25C143.521 220.375 143.64 220.495 143.765 220.609C143.832 220.682 143.91 220.76 143.978 220.833C144.128 220.994 144.284 221.151 144.445 221.302C144.481 221.354 144.528 221.39 144.57 221.432L144.684 221.546C144.918 221.776 145.157 222.01 145.401 222.239C145.473 222.312 145.556 222.39 145.634 222.458C145.832 222.65 146.034 222.833 146.231 223.004C146.403 223.166 146.585 223.327 146.766 223.478C147.026 223.713 147.286 223.942 147.556 224.155C147.8 224.358 148.049 224.567 148.293 224.759C148.968 225.306 149.664 225.832 150.375 226.327C150.713 226.571 151.05 226.806 151.393 227.03C151.741 227.264 152.089 227.493 152.442 227.717C154.016 228.712 155.646 229.618 157.329 230.404C159.691 231.503 162.148 232.383 164.687 233.028C167.226 233.674 169.854 234.085 172.544 234.242L171.754 227.722L170.846 220.265V220.239L170.82 220.057L168.774 203.128L175.088 200.759L181.294 203.035L179.274 220.161C180.068 220.182 180.858 220.198 181.647 220.224C181.299 220.219 180.946 220.213 180.593 220.213C180.151 220.213 179.71 220.208 179.269 220.208L178.386 227.722L177.622 234.226C182.94 233.903 188.008 232.575 192.692 230.409C194.38 229.623 196.01 228.722 197.589 227.722H197.594C197.963 227.493 198.321 227.259 198.674 227.019C198.97 226.827 199.272 226.618 199.562 226.41C199.645 226.358 199.723 226.306 199.806 226.243C200.134 226.014 200.461 225.769 200.783 225.525C201.12 225.275 201.447 225.02 201.774 224.759C201.826 224.723 201.878 224.676 201.93 224.634C202.216 224.41 202.496 224.181 202.766 223.947C202.865 223.864 202.958 223.785 203.052 223.697C203.628 223.202 204.194 222.692 204.75 222.171C204.973 221.953 205.197 221.739 205.415 221.526C205.508 221.437 205.596 221.354 205.69 221.26H205.695C205.695 221.26 205.752 221.203 205.768 221.177H205.773C206.001 220.953 206.22 220.729 206.438 220.5C206.697 220.234 206.952 219.963 207.201 219.687C207.824 219.01 208.427 218.313 209.008 217.589C209.59 216.87 210.156 216.131 210.706 215.376C211.246 214.621 211.776 213.85 212.285 213.059C212.794 212.267 213.277 211.46 213.744 210.637C213.9 210.361 214.056 210.091 214.206 209.809C214.658 208.976 215.089 208.127 215.494 207.263H215.499L219.841 208.268C219.368 209.315 218.864 210.34 218.34 211.345C218.059 211.877 217.779 212.392 217.488 212.902C217.166 213.465 216.844 214.017 216.507 214.558C216.387 214.756 216.247 214.97 216.096 215.188C214.653 217.448 213.064 219.604 211.329 221.598C211.309 221.619 211.293 221.64 211.272 221.661C211.262 221.671 211.246 221.687 211.241 221.697H211.236C211.142 221.802 211.049 221.911 210.955 222.01C228.185 223.624 244.019 226.087 257.987 228.847L257.967 228.712L257.525 225.54L257.536 225.535ZM183.818 164.048L210.415 167.792H210.384L183.818 172.484V164.048ZM166.266 164.048V172.484L139.699 167.797H139.668L166.266 164.048ZM231.161 206.737L230.99 206.701L229.364 206.32L228.154 206.044L227.23 205.826L225.89 205.519L225.371 205.394L225.319 205.383L225.236 205.362L223.05 204.857L221.398 204.477L217.119 203.493L175.047 193.782L133.052 203.472L129.178 204.363L128.778 204.456L127.999 204.639L127.397 204.774L124.556 205.43L122.843 205.831L121.664 206.107L120.719 206.32L118.922 206.737L118.829 206.763L118.626 206.805L118.221 206.898L118.605 206.747L118.756 206.685L118.881 206.633L120.361 206.055L121.259 205.701L123.819 204.691L125.927 203.863L126.327 203.701L127.667 203.17L128.238 202.946L132.294 201.348L136.469 199.702L175.047 184.487L217.883 201.379L221.928 202.977L224.088 203.826L225.542 204.399L225.662 204.451L226.591 204.821L227.786 205.295L228.596 205.612L229.733 206.06L231.104 206.596L231.218 206.638L231.872 206.898L231.177 206.737H231.161Z" fill="white"/>
<path d="M208.032 94.2871C207.902 94.1361 207.772 93.9955 207.642 93.8497C207.492 93.6831 207.346 93.5217 207.196 93.355C207.185 93.3394 207.17 93.329 207.159 93.3186C207.611 93.8081 208.053 94.308 208.489 94.8131C208.338 94.636 208.188 94.459 208.037 94.2871H208.032Z" fill="#D1B686"/>
<path d="M206.355 92.4855C206.22 92.3449 206.079 92.2147 205.944 92.0793C206.303 92.4386 206.661 92.7979 207.009 93.1729C206.791 92.9437 206.573 92.7094 206.355 92.4855Z" fill="#D1B686"/>
<path d="M205.264 91.4076C205.03 91.1837 204.797 90.9598 204.563 90.7411C204.449 90.637 204.34 90.538 204.226 90.4339C204.184 90.3922 204.137 90.3558 204.096 90.3193C204.516 90.6943 204.927 91.0848 205.332 91.4753C205.306 91.4545 205.285 91.4285 205.264 91.4076Z" fill="#D1B686"/>
<path d="M47.3591 174.197C47.0786 174.614 46.7982 175.03 46.5334 175.447C53.4295 186.752 62.543 198.713 73.7077 211.08C78.1684 216.011 82.9614 221.041 88.0764 226.118L91.0883 203.764L91.7841 198.64L95.5178 170.99L96.2136 165.866L100.113 136.903L115.978 116.579H109.907C108.1 116.579 106.636 115.121 106.636 113.309C106.636 111.497 108.1 110.039 109.907 110.039H124.832L131.65 103.27H124.65C122.853 103.27 121.389 101.801 121.389 99.9943C121.389 98.1874 122.853 96.719 124.65 96.719H134.501C138.837 90.361 144.419 85.0548 150.863 81.2171C158.014 76.968 166.229 74.5415 174.958 74.5415C183.688 74.5415 191.918 76.9732 199.069 81.2223C205.508 85.0548 211.075 90.3662 215.411 96.719H225.272C227.069 96.719 228.533 98.1874 228.533 99.9943C228.533 101.801 227.069 103.27 225.272 103.27H217.789L223.678 110.039H240.02C241.827 110.039 243.292 111.497 243.292 113.309C243.292 115.121 241.827 116.579 240.02 116.579H234.007L249.876 136.903L253.776 165.866L254.472 170.99L258.185 198.531L258.881 203.649L261.757 224.952L261.913 226.108C262.303 225.728 262.697 225.337 263.082 224.952C267.755 220.276 272.159 215.641 276.292 211.054C288.693 197.317 298.565 184.096 305.668 171.719C298.565 159.325 288.688 146.094 276.282 132.352C264.946 119.787 251.398 106.675 236.027 93.3916C214.912 75.1403 194.603 60.1852 181.065 50.7236C180.998 50.7653 180.92 50.8122 180.852 50.859C157.381 66.741 84.1558 118.813 47.3487 174.187L47.3591 174.197Z" fill="#D1B686"/>
<path d="M201.826 88.3979C201.427 88.0854 201.027 87.773 200.622 87.4762L200.601 87.4606C201.105 87.8303 201.598 88.2156 202.086 88.6062C202.003 88.5385 201.915 88.4656 201.832 88.3979H201.826Z" fill="#D1B686"/>
<path d="M139.886 96.7086H210.031C209.839 96.4586 209.647 96.2087 209.439 95.9691C209.398 95.9119 209.351 95.865 209.309 95.8077C209.174 95.6411 209.034 95.4692 208.889 95.3026C209.273 95.7661 209.657 96.2295 210.026 96.7086H139.886Z" fill="#D1B686"/>
<path d="M203.576 89.8559C203.301 89.6216 203.031 89.3821 202.756 89.1529C202.72 89.1217 202.683 89.0957 202.652 89.0644C202.569 88.9967 202.486 88.929 202.403 88.8613C202.86 89.2362 203.312 89.6216 203.758 90.0121C203.701 89.9601 203.639 89.9028 203.582 89.8559H203.576Z" fill="#D1B686"/>
<path d="M152.032 85.6067C151.897 85.6953 151.762 85.7838 151.632 85.8723C152.063 85.5911 152.499 85.3151 152.941 85.0496C152.634 85.2318 152.333 85.4193 152.032 85.6119V85.6067Z" fill="#D1B686"/>
<path d="M149.093 87.6324C148.864 87.799 148.631 87.976 148.407 88.1531C148.397 88.1635 148.376 88.1791 148.366 88.1843C148.231 88.2885 148.096 88.3978 147.966 88.5072C148.35 88.1999 148.74 87.8979 149.134 87.6063C149.124 87.6167 149.108 87.6219 149.098 87.6324H149.093Z" fill="#D1B686"/>
<path d="M149.976 86.9918C149.882 87.0543 149.789 87.1272 149.695 87.1949C150.085 86.9137 150.479 86.6377 150.879 86.3669C150.573 86.57 150.272 86.7783 149.976 86.9918Z" fill="#D1B686"/>
<path d="M175.701 78.905C175.545 78.905 175.389 78.905 175.234 78.905C175.514 78.905 175.789 78.9102 176.07 78.9207C175.945 78.9207 175.82 78.9154 175.701 78.9102V78.905Z" fill="#D1B686"/>
<path d="M143.765 92.2824C143.568 92.4803 143.375 92.6834 143.183 92.8813C143.142 92.9281 143.1 92.975 143.059 93.0167C143.407 92.6469 143.76 92.2876 144.118 91.9283C143.999 92.0429 143.884 92.1627 143.77 92.2772L143.765 92.2824Z" fill="#D1B686"/>
<path d="M146.823 89.4445C146.626 89.6111 146.424 89.7882 146.226 89.9652C146.59 89.6476 146.958 89.3351 147.332 89.0227C147.161 89.1633 146.99 89.3039 146.823 89.4445Z" fill="#D1B686"/>
<path d="M142.046 94.1154C141.875 94.3133 141.698 94.5059 141.532 94.709L141.522 94.7194C141.807 94.3862 142.098 94.0633 142.389 93.7405C142.274 93.8655 142.16 93.9852 142.046 94.1102V94.1154Z" fill="#D1B686"/>
<path d="M177.451 78.9727C177.28 78.9623 177.098 78.9519 176.921 78.9415C176.869 78.9415 176.828 78.9363 176.776 78.9363C176.724 78.9363 176.672 78.9363 176.625 78.9363C176.916 78.9467 177.207 78.9623 177.503 78.9831C177.487 78.9831 177.467 78.9831 177.451 78.9831V78.9727Z" fill="#D1B686"/>
<path d="M145.162 90.9181C144.964 91.1004 144.777 91.2878 144.585 91.4701C144.97 91.0951 145.364 90.7306 145.759 90.3713C145.562 90.5536 145.359 90.7306 145.162 90.9181Z" fill="#D1B686"/>
<path d="M199.614 86.7523C199.51 86.6846 199.401 86.6065 199.303 86.5388C199.214 86.4815 199.131 86.4242 199.043 86.3669C199.458 86.6481 199.874 86.9345 200.284 87.2313C200.061 87.0699 199.838 86.9085 199.614 86.7523Z" fill="#D1B686"/>
<path d="M193.819 83.3259C193.736 83.2843 193.658 83.2426 193.575 83.2062C193.575 83.2062 193.57 83.2062 193.565 83.2062C193.674 83.2582 193.783 83.3103 193.892 83.3676C193.866 83.3572 193.845 83.3416 193.819 83.3312V83.3259Z" fill="#D1B686"/>
<path d="M192.879 82.8729C192.734 82.8104 192.588 82.7427 192.432 82.675C192.432 82.675 192.427 82.675 192.422 82.675C192.604 82.7584 192.786 82.8365 192.967 82.9198C192.936 82.9042 192.91 82.8938 192.879 82.8781V82.8729Z" fill="#D1B686"/>
<path d="M190.942 82.0294C190.88 82.0033 190.818 81.9773 190.76 81.9565C190.74 81.9512 190.719 81.9356 190.698 81.9304C190.683 81.9252 190.672 81.92 190.657 81.9148C190.781 81.9669 190.906 82.0189 191.036 82.071C191.004 82.0606 190.973 82.045 190.942 82.0294Z" fill="#D1B686"/>
<path d="M178.905 79.0769C178.869 79.0717 178.832 79.0717 178.791 79.0717C178.619 79.0509 178.443 79.0404 178.277 79.03C178.266 79.03 178.256 79.03 178.246 79.03C178.542 79.0509 178.838 79.0769 179.134 79.1081C179.056 79.1029 178.978 79.0925 178.9 79.0821L178.905 79.0769Z" fill="#D1B686"/>
<path d="M198.129 85.763C197.932 85.6328 197.719 85.5027 197.516 85.3777C197.485 85.3569 197.459 85.3412 197.428 85.3204C197.392 85.2944 197.355 85.2788 197.314 85.2527C197.277 85.2267 197.241 85.2111 197.2 85.185L197.106 85.1277C197.106 85.1277 197.075 85.1069 197.065 85.1017C197.044 85.0861 197.018 85.0757 196.997 85.0601C197.464 85.3412 197.927 85.6329 198.384 85.9297C198.3 85.8724 198.212 85.8151 198.129 85.763Z" fill="#D1B686"/>
<path d="M180.084 79.2122C180.022 79.2018 179.959 79.1966 179.897 79.1914C179.98 79.2018 180.063 79.2122 180.151 79.2226C180.131 79.2226 180.11 79.2174 180.084 79.2122Z" fill="#D1B686"/>
<path d="M185.739 80.2954C185.635 80.2693 185.531 80.2433 185.427 80.212C185.588 80.2537 185.749 80.2954 185.91 80.337C185.853 80.3214 185.801 80.3058 185.744 80.2901L185.739 80.2954Z" fill="#D1B686"/>
<path d="M182.94 79.6602C182.914 79.6549 182.888 79.6497 182.862 79.6445C182.987 79.6654 183.106 79.6914 183.231 79.7174C183.132 79.6966 183.039 79.6758 182.94 79.6602Z" fill="#D1B686"/>
<path d="M184.347 79.9517C184.264 79.9309 184.176 79.9152 184.093 79.8944C184.321 79.9465 184.555 79.9986 184.783 80.0506C184.638 80.0142 184.487 79.9777 184.347 79.9465V79.9517Z" fill="#D1B686"/>
<path d="M141.044 95.2713C141.044 95.2713 141.023 95.2922 141.018 95.3026C140.961 95.3651 140.914 95.4223 140.867 95.4848C140.701 95.6827 140.53 95.891 140.369 96.0941C140.234 96.2555 140.099 96.4273 139.969 96.5992C140.348 96.1097 140.737 95.6306 141.137 95.162C141.106 95.1984 141.075 95.2349 141.044 95.2713Z" fill="#D1B686"/>
<path d="M150.697 46.6308L165.295 37.4453L149.924 28.2545L150.697 46.6308Z" fill="#6CAA21"/>
<path d="M129.791 63.2053L143.007 52.1139L126.535 45.105L129.791 63.2053Z" fill="#6CAA21"/>
<path d="M107.404 82.9199L120.293 71.4484L103.619 64.9237L107.404 82.9199Z" fill="#6CAA21"/>
<path d="M85.1736 103.717L97.0289 91.1732L79.8613 86.1118L85.1736 103.717Z" fill="#6CAA21"/>
<path d="M42.7945 125.775L48.112 143.381L59.9674 130.837L42.7945 125.775Z" fill="#6CAA21"/>
<path d="M65.9288 124.255L77.7841 111.716L60.6113 106.654L65.9288 124.255Z" fill="#6CAA21"/>
<path d="M44.1395 149.968L26.3643 147.885L34.5638 164.335L44.1395 149.968Z" fill="#6CAA21"/>
<path d="M28.8465 199.379L47.1098 197.734L37.2693 183.549L28.8465 199.379Z" fill="#6CAA21"/>
<path d="M48.4392 225.811L66.3131 221.692L54.6447 208.976L48.4392 225.811Z" fill="#6CAA21"/>
<path d="M285.011 220.198L302.184 225.259L296.866 207.654L285.011 220.198Z" fill="#6CAA21"/>
<path d="M303.752 199.483L321.527 201.566L313.328 185.117L303.752 199.483Z" fill="#6CAA21"/>
<path d="M305.128 151.827L314.907 166.053L315.171 165.564L323.402 150.26L306.089 151.744L305.128 151.827Z" fill="#6CAA21"/>
<path d="M306.712 125.801L288.802 129.774L300.372 142.584L306.712 125.801Z" fill="#6CAA21"/>
<path d="M268.28 108.118L280.218 120.584L286.06 103.624L268.28 108.118Z" fill="#6CAA21"/>
<path d="M259.644 98.0521L264.011 80.6495L246.683 86.6639L259.644 98.0521Z" fill="#6CAA21"/>
<path d="M216.585 61.4505L220.889 44.0323L203.582 50.1092L216.585 61.4505Z" fill="#6CAA21"/>
<path d="M198.051 45.506L199.365 27.6088L183.324 36.5287L198.051 45.506Z" fill="#6CAA21"/>
<path d="M237.076 79.6966L241.381 62.2784L224.073 68.3605L237.076 79.6966Z" fill="#6CAA21"/>
<path d="M175.078 11.5028C169.854 11.5028 165.606 16.1164 165.606 21.7819C165.606 27.4473 169.854 32.0609 175.078 32.0609C180.302 32.0609 184.55 27.4525 184.55 21.7819C184.55 16.1112 180.302 11.5028 175.078 11.5028ZM175.078 28.9418C171.568 28.9418 168.711 25.7289 168.711 21.7767C168.711 19.5115 169.657 17.4807 171.126 16.1737C170.825 16.9235 170.654 17.7723 170.654 18.6679C170.654 21.7662 172.668 24.2813 175.156 24.2813C177.643 24.2813 179.658 21.7714 179.658 18.6679C179.658 17.8608 179.518 17.1006 179.274 16.408H179.279C180.598 17.7254 181.439 19.6469 181.439 21.7767C181.439 25.7237 178.583 28.9418 175.073 28.9418H175.078Z" fill="#BE3D1E"/>
<path d="M19.9303 161.929C14.2804 161.929 9.67953 166.188 9.67953 171.427C9.67953 176.665 14.2752 180.925 19.9303 180.925C25.5853 180.925 30.181 176.665 30.181 171.427C30.181 166.188 25.5801 161.929 19.9303 161.929ZM19.9303 177.811C17.661 177.811 15.6462 176.863 14.3324 175.39C15.0853 175.686 15.9266 175.863 16.8249 175.863C19.9147 175.863 22.4229 173.843 22.4229 171.349C22.4229 168.855 19.9199 166.834 16.8249 166.834C16.0252 166.834 15.2671 166.97 14.5764 167.214C15.8746 165.886 17.796 165.043 19.9251 165.043C23.8613 165.043 27.0705 167.907 27.0705 171.427C27.0705 174.947 23.8665 177.811 19.9251 177.811H19.9303Z" fill="#BE3D1E"/>
<path d="M335.969 166.298C333.964 164.621 331.368 163.762 328.662 163.882C325.952 163.996 323.438 165.079 321.59 166.917C319.7 168.802 318.718 171.255 318.832 173.812C319.05 178.894 323.558 182.867 328.995 182.867C329.156 182.867 329.317 182.867 329.473 182.862C335.117 182.617 339.536 178.165 339.313 172.927C339.199 170.365 338.015 168.011 335.969 166.298ZM334.613 177.337H334.608C333.362 178.733 331.477 179.66 329.343 179.748C325.412 179.941 322.083 177.196 321.932 173.682C321.865 172 322.514 170.385 323.776 169.131C324.43 168.485 325.199 167.964 326.05 167.605C326.902 167.245 327.826 167.032 328.797 166.996C328.917 166.99 329.031 166.99 329.151 166.99C330.953 166.99 332.656 167.589 333.975 168.698C334.162 168.855 334.333 169.011 334.494 169.177C333.726 168.907 332.869 168.766 331.97 168.802C328.881 168.938 326.466 171.062 326.575 173.557C326.684 176.051 329.27 177.962 332.36 177.827C333.17 177.79 333.928 177.618 334.613 177.337Z" fill="#BE3D1E"/>
<path d="M210.026 96.7086C209.657 96.2295 209.273 95.7661 208.889 95.3026C208.826 95.2297 208.769 95.1568 208.707 95.0839C208.702 95.0735 208.691 95.0579 208.681 95.0475C208.639 94.985 208.582 94.9329 208.53 94.8704C208.515 94.8548 208.499 94.834 208.489 94.8183C208.053 94.3132 207.611 93.8133 207.159 93.3239C207.113 93.2718 207.061 93.2249 207.014 93.1728C206.666 92.8031 206.308 92.4386 205.95 92.0793C205.747 91.8763 205.545 91.6732 205.342 91.4753C204.937 91.0848 204.522 90.6942 204.106 90.3193C203.992 90.2151 203.878 90.1162 203.763 90.0121C203.317 89.6215 202.865 89.2362 202.408 88.8613C202.304 88.7727 202.195 88.6894 202.091 88.6061C201.603 88.2156 201.11 87.8302 200.606 87.4605C200.502 87.3824 200.398 87.3095 200.295 87.2366C199.884 86.9398 199.469 86.6534 199.053 86.3722C198.835 86.2264 198.612 86.0806 198.394 85.9348C197.937 85.638 197.475 85.3464 197.007 85.0652C196.955 85.034 196.909 85.0027 196.852 84.9767C196.441 84.732 196.031 84.4976 195.616 84.2685C195.289 84.0863 194.956 83.9092 194.624 83.7374C194.556 83.7061 194.494 83.6697 194.427 83.6332C194.364 83.5968 194.297 83.5655 194.229 83.5343C194.12 83.477 194.011 83.4249 193.902 83.3729C193.793 83.3208 193.684 83.2635 193.575 83.2114C193.378 83.1177 193.18 83.0188 192.978 82.925C192.796 82.8417 192.614 82.7584 192.432 82.6803C191.976 82.472 191.513 82.2689 191.046 82.0815C190.921 82.0294 190.797 81.9773 190.667 81.9253C190.438 81.8315 190.215 81.7482 189.987 81.6649C189.883 81.6232 189.774 81.5816 189.67 81.5451C189.405 81.441 189.13 81.3473 188.86 81.2535C188.86 81.2535 188.856 81.2518 188.849 81.2483C188.849 81.2483 188.839 81.2431 188.829 81.2431C188.486 81.1233 188.143 81.014 187.795 80.8994C187.343 80.7536 186.887 80.613 186.43 80.4881C186.258 80.436 186.082 80.3891 185.905 80.3475C185.744 80.3058 185.583 80.2642 185.422 80.2225C185.292 80.1913 185.168 80.1548 185.038 80.1236C184.955 80.1027 184.866 80.0819 184.778 80.0611C184.55 80.0038 184.316 79.9569 184.088 79.9049C183.895 79.8632 183.708 79.8163 183.516 79.7799C183.423 79.7591 183.324 79.7434 183.231 79.7226C183.106 79.6966 182.987 79.6757 182.862 79.6497C182.654 79.608 182.441 79.5664 182.234 79.5351C181.543 79.4154 180.847 79.3112 180.151 79.2279C180.068 79.2175 179.985 79.2071 179.897 79.1967C179.72 79.1758 179.544 79.155 179.362 79.1342C179.284 79.1238 179.211 79.1186 179.134 79.1082C178.838 79.0769 178.542 79.0561 178.246 79.03C178.001 79.0092 177.752 78.9936 177.503 78.978C177.212 78.9623 176.921 78.9415 176.625 78.9311C176.537 78.9311 176.449 78.9207 176.355 78.9207C176.262 78.9155 176.163 78.9155 176.07 78.9103C175.789 78.9051 175.514 78.8999 175.234 78.8947C175.145 78.8947 175.052 78.8947 174.958 78.8947C167.039 78.8947 159.603 81.0869 153.081 84.9559C153.034 84.9819 152.987 85.0131 152.941 85.0444C152.499 85.31 152.063 85.5859 151.632 85.8671C151.419 86.0025 151.206 86.1431 150.999 86.2837C150.957 86.3097 150.921 86.3358 150.884 86.3618C150.484 86.6326 150.09 86.9034 149.7 87.1898C149.648 87.2314 149.591 87.2679 149.539 87.3043C149.41 87.398 149.28 87.4918 149.155 87.5907L149.139 87.6011C148.745 87.8927 148.355 88.1948 147.971 88.502C147.872 88.5801 147.774 88.6582 147.675 88.7363C147.561 88.83 147.447 88.9238 147.332 89.0175C146.958 89.3247 146.59 89.6371 146.226 89.96C146.148 90.0329 146.065 90.0954 145.987 90.1683C145.915 90.236 145.842 90.3037 145.764 90.3714C145.364 90.7307 144.975 91.0952 144.591 91.4701C144.513 91.543 144.435 91.6159 144.362 91.6888C144.279 91.7669 144.201 91.8502 144.123 91.9283C143.765 92.2824 143.412 92.6469 143.064 93.0166C142.841 93.2562 142.617 93.4957 142.399 93.7404C142.108 94.0633 141.812 94.3861 141.532 94.7194C141.407 94.8652 141.277 95.011 141.153 95.162C140.758 95.6359 140.364 96.1097 139.984 96.5992C139.953 96.6357 139.927 96.6721 139.896 96.7086H210.036H210.026Z" fill="white"/>
<path d="M131.655 103.264L124.832 110.034H223.683L217.795 103.264H131.655Z" fill="white"/>
<path d="M228.492 116.574H121.503L104.818 137.96L125.185 172.442V147.427L137.009 132.914H164.318L175.099 144.766L185.869 132.914H213.194L224.509 146.807L224.997 147.411V172.104L245.177 137.955L245.166 137.945L228.492 116.574Z" fill="white"/>
<path d="M175.078 28.9469C178.588 28.9469 181.444 25.7341 181.444 21.7818C181.444 19.652 180.598 17.7254 179.284 16.4184H179.279C179.523 17.1005 179.663 17.866 179.663 18.6731C179.663 21.7714 177.648 24.2865 175.161 24.2865C172.674 24.2865 170.659 21.7766 170.659 18.6731C170.659 17.7774 170.83 16.9287 171.131 16.1788C169.662 17.4858 168.717 19.5167 168.717 21.7818C168.717 25.7289 171.573 28.9469 175.083 28.9469H175.078Z" fill="#FFB531"/>
<path d="M326.58 173.551C326.471 171.062 328.891 168.933 331.976 168.797C332.879 168.761 333.731 168.896 334.499 169.172C334.338 169.006 334.162 168.849 333.98 168.693C332.656 167.584 330.953 166.985 329.156 166.985C329.036 166.985 328.922 166.985 328.803 166.99C327.832 167.027 326.907 167.24 326.056 167.6C325.204 167.959 324.435 168.48 323.781 169.125C322.519 170.385 321.87 171.994 321.938 173.676C322.088 177.191 325.417 179.935 329.348 179.743C331.482 179.654 333.367 178.727 334.614 177.337H334.619C334.619 177.337 334.619 177.332 334.619 177.327C333.933 177.608 333.175 177.78 332.365 177.816C329.275 177.952 326.689 176.035 326.58 173.546V173.551Z" fill="#FFB531"/>
<path d="M19.9303 165.043C17.8012 165.043 15.8798 165.881 14.5816 167.209C15.2723 166.97 16.0304 166.829 16.8301 166.829C19.9199 166.829 22.4281 168.849 22.4281 171.344C22.4281 173.838 19.9251 175.858 16.8301 175.858C15.9318 175.858 15.0853 175.681 14.3376 175.379C15.6462 176.858 17.6662 177.806 19.9355 177.806C23.8717 177.806 27.0809 174.942 27.0809 171.422C27.0809 167.902 23.8769 165.038 19.9355 165.038L19.9303 165.043Z" fill="#FFB531"/>
<path d="M342.818 165.621C334.484 148.817 322.265 131.305 306.307 113.174C290.349 95.0422 270.642 76.2754 247.29 56.9827C230.071 42.7565 214.149 30.983 202.377 22.6619C196.483 18.5013 191.633 15.1999 188.164 12.8931C184.706 10.5811 182.634 9.2689 182.301 9.0554L174.995 4.41577L167.699 9.0554H167.694C167.694 9.0554 167.652 9.08144 167.621 9.10748C167.315 9.30014 166.458 9.84169 165.113 10.7269C164.822 10.9144 164.51 11.1279 164.168 11.3518C163.825 11.5757 163.451 11.8204 163.062 12.0808C162.677 12.336 162.267 12.6119 161.831 12.8983C151.445 19.8239 128.539 35.6539 102.71 56.9827C79.3628 76.2754 59.6506 95.0422 43.6929 113.174C27.73 131.305 15.5163 148.812 7.18177 165.621L4.1647 171.724L7.18177 177.821C15.5163 194.63 27.73 212.137 43.6929 230.274C46.0349 232.935 48.4548 235.606 50.9681 238.298C59.8324 235.398 68.6603 232.903 77.4362 230.774C80.1521 230.112 82.8576 229.493 85.5631 228.899C80.5519 223.91 75.6499 218.802 70.9451 213.595C60.8034 202.347 51.6172 190.668 44.3057 178.941C43.5579 177.754 42.8309 176.556 42.1298 175.364C41.408 174.156 40.7122 172.942 40.0423 171.724C47.8887 157.602 58.7055 143.423 70.9399 129.879C89.8991 108.867 112.203 89.382 131.826 73.7812C150.214 59.1541 166.255 47.9377 175.01 42.0223C186.866 50.0362 212.119 67.7824 238.473 90.5692C243.421 94.8496 248.417 99.3069 253.361 103.905C255.298 105.707 257.224 107.529 259.135 109.367C259.161 109.388 259.187 109.409 259.208 109.435C266.047 116.012 272.73 122.844 279.055 129.852C291.284 143.402 302.111 157.591 309.958 171.724C302.117 185.835 291.295 200.02 279.065 213.569C274.137 219.031 268.986 224.384 263.715 229.597C263.71 229.602 263.684 229.628 263.642 229.68C263.674 229.685 263.7 229.691 263.731 229.706C264.26 229.826 264.785 229.951 265.315 230.081C267.459 230.586 269.583 231.107 271.686 231.648C272.948 231.971 274.2 232.305 275.451 232.643C275.456 232.638 275.456 232.643 275.461 232.643C284.305 234.742 292.073 236.861 298.575 238.793C301.254 235.934 303.825 233.101 306.307 230.279C322.265 212.142 334.484 194.641 342.818 177.827L345.835 171.729L342.818 165.626V165.621ZM315.171 165.564L314.907 166.053L305.128 151.822L306.089 151.738L323.402 150.254L315.171 165.558V165.564ZM306.712 125.801L300.372 142.584L288.802 129.774L306.707 125.801H306.712ZM286.065 103.619L280.218 120.578L268.28 108.112L286.065 103.613V103.619ZM264.016 80.6443L259.649 98.0468L246.688 86.6586L264.022 80.6443H264.016ZM241.386 62.2784L237.081 79.6965L224.078 68.3552L241.386 62.2784ZM220.895 44.0323L216.59 61.4504L203.587 50.1091L220.895 44.0323ZM199.365 27.6087L198.051 45.5059L183.324 36.5287L199.365 27.6087ZM175.078 11.5028C180.302 11.5028 184.55 16.1164 184.55 21.7819C184.55 27.4473 180.302 32.0609 175.078 32.0609C169.854 32.0609 165.606 27.4525 165.606 21.7819C165.606 16.1112 169.854 11.5028 175.078 11.5028ZM165.295 37.44L150.697 46.6255L149.918 28.2492L165.289 37.4348L165.295 37.44ZM143.007 52.1139L129.791 63.2053L126.535 45.105L143.012 52.1139H143.007ZM120.293 71.4431L107.404 82.9146L103.619 64.9185L120.293 71.4431ZM97.029 91.1681L85.1736 103.712L79.8613 86.1118L97.0341 91.1733L97.029 91.1681ZM77.7841 111.711L65.9288 124.255L60.6165 106.654L77.7893 111.716L77.7841 111.711ZM59.9674 130.831L48.112 143.376L42.7997 125.775L59.9726 130.837L59.9674 130.831ZM44.1395 149.963L34.5638 164.329L26.3643 147.88L44.1395 149.963ZM19.9303 180.92C14.2804 180.92 9.67954 176.66 9.67954 171.422C9.67954 166.183 14.2752 161.924 19.9303 161.924C25.5853 161.924 30.181 166.183 30.181 171.422C30.181 176.66 25.5801 180.92 19.9303 180.92ZM28.8413 199.379L37.2641 183.544L47.1046 197.729L28.8361 199.374L28.8413 199.379ZM48.434 225.806L54.6395 208.971L66.3079 221.687L48.434 225.806ZM285.006 220.193L296.861 207.648L302.174 225.249L285.001 220.187L285.006 220.193ZM303.747 199.478L313.323 185.111L321.522 201.561L303.747 199.478ZM329.462 182.857C329.306 182.862 329.145 182.862 328.984 182.862C323.548 182.862 319.04 178.889 318.822 173.807C318.708 171.245 319.689 168.797 321.579 166.912C323.428 165.074 325.947 163.991 328.652 163.876C331.352 163.757 333.949 164.616 335.958 166.293C338.004 168.006 339.188 170.359 339.303 172.921C339.526 178.16 335.112 182.612 329.462 182.857Z" fill="#FFB531"/>
<path d="M134.033 294.338L137.845 301.238H164.941L166.556 304.945L167.372 306.815L167.875 307.981L168.441 309.272L168.779 309.09L169.994 308.424L170.373 308.221L176.226 305.018L174.585 301.243H265.772L267.386 304.95L268.197 306.82L269.266 309.272L269.609 309.09L271.198 308.221L271.645 307.976L277.056 305.018L275.415 301.243H300.299L300.808 296.208L301 294.338L301.187 292.5H271.608L260.091 266.027H294.073L294.587 260.986L294.779 259.117L294.966 257.278H256.289L254.674 253.571L254.41 252.956L253.672 251.248L252.343 248.192L250.499 249.202L244.553 252.451L246.651 257.278H244.304L243.416 266.021H250.458L252.068 269.729L252.883 271.598L261.976 292.495H231.924L214.726 252.956L213.988 251.248L212.659 248.192L209.787 249.759L204.869 252.451L204.989 252.717L208.38 260.517L187.951 292.495H170.794L155.267 256.805L154.53 255.097L153.2 252.04L145.411 256.299L149.539 265.797L161.156 292.495H133.036L134.049 294.333L134.033 294.338ZM204.927 280.997L212.274 269.5L214.85 275.436L215.728 277.441L222.281 292.5H197.579L204.927 280.997Z" fill="#FFB531"/>
<path d="M68.3695 304.945L68.3331 305.013L71.2671 306.815L71.3554 306.877L72.5497 307.606L72.908 307.83L75.25 309.267L80.3806 301.238H114.472L116.087 304.945L116.902 306.815L118.45 310.382L118.792 310.194L120.381 309.325L126.234 306.122L112.301 274.087L103.11 252.962L102.372 251.254L101.043 248.197L98.1714 249.764L93.2589 252.457L93.3732 252.722L96.7641 260.523L87.5156 274.999L76.3405 292.5H61.8732L60.9852 301.238H70.7478L68.3798 304.945H68.3695ZM93.3109 280.997L100.659 269.5L103.245 275.436L104.112 277.441L110.665 292.5H85.9629L93.3109 280.997Z" fill="#FFB531"/>
<path d="M65.1966 257.721L65.3887 255.852L65.4978 254.8H54.0838L53.414 261.356L53.1907 263.543H54.2085H56.0156H64.6046L65.1966 257.721Z" fill="#FFB531"/>
<path d="M81.4244 263.543L81.8502 259.377L82.0163 257.721L82.2085 255.852L82.3175 254.8H70.9036L70.0104 263.543H71.0282H72.8353H81.4244Z" fill="#FFB531"/>
<path d="M295.698 328.201L294.95 326.493L293.616 323.436L291.565 324.561L285.832 327.696L310.015 383.059L310.347 382.876L311.941 382.002L314.813 380.434L317.799 378.799L316.734 376.352L295.698 328.201Z" fill="#FFB531"/>
<path d="M271.858 326.493L270.523 323.441L268.716 324.431L262.739 327.701L279.839 366.776H258.341L247.134 341.016L246.35 339.214L245.613 337.506L244.278 334.449L241.656 335.887L236.494 338.709L236.525 338.771H203.774L203.229 337.506L201.894 334.449L200.18 335.392L194.11 338.714L206.323 366.781H194.027L190.262 358.121L189.514 356.413L188.185 353.357L184.29 355.481L180.401 357.611L184.389 366.781H167.631L155.641 339.219L154.893 337.511L153.564 334.455L152.042 335.288L145.78 338.714L157.993 366.781H129.053L123.539 354.091L117.068 339.219L116.32 337.511L114.991 334.455L111.829 336.189L107.207 338.719L119.421 366.786H84.8724L72.8821 339.224L72.1343 337.516L70.8049 334.46L69.8858 334.965L63.0208 338.719L66.2248 346.082L75.2292 366.786H67.8709L66.983 375.529H79.0356L80.6454 379.237L81.4607 381.106L83.2263 385.157L83.5638 384.97L84.5712 384.423L85.1632 384.1L91.0156 380.898L90.569 379.872L88.6788 375.534H123.227L124.811 379.185L124.842 379.242L125.652 381.111L126.784 383.704L127.122 383.517L128.716 382.647L134.568 379.445L132.865 375.54H161.805L163.42 379.247L164.235 381.116L164.469 381.663L164.806 381.476L166.401 380.601L170.441 378.388L172.253 377.398L171.443 375.534H189.997L191.607 379.242L192.422 381.111L192.666 381.658L193.004 381.471L194.598 380.596L200.45 377.393L200.004 376.357L199.635 375.529H210.135L211.745 379.237L212.555 381.106L213.973 384.371L214.315 384.178L215.91 383.309L221.757 380.111L219.783 375.534H252.53L253.044 376.711L254.145 379.242L254.96 381.111L255.194 381.658L255.531 381.471L257.125 380.596L262.978 377.393L262.765 376.899L262.168 375.529H283.017L283.142 374.331L285.271 379.231L285.769 380.377L286.086 381.101L286.943 383.064L287.28 382.882L288.875 382.012L293.247 379.612L294.727 378.81L272.621 328.206L271.873 326.498L271.858 326.493ZM215.956 366.776L210.961 355.299L207.575 347.519H240.326L241.941 351.227L242.751 353.096L246.21 361.043L248.708 366.781H215.956V366.776Z" fill="#FFB531"/>
<path d="M129.043 406.038H129.817H131.624H140.457L140.909 401.628L141.096 399.758L141.127 399.482L141.35 397.295H129.931L129.043 406.038Z" fill="#FFB531"/>
<path d="M88.0712 334.538H89.8784H96.9095L97.4236 329.502L97.6157 327.633L97.8027 325.795H86.3887L85.4956 334.538H88.0712Z" fill="#FFB531"/>
<path d="M146.527 399.482L145.863 406.038H146.637H148.444H157.277L157.723 401.628L157.915 399.758L158.165 397.295H146.751L146.527 399.482Z" fill="#FFB531"/>
<path d="M64.1009 403.856H66.6766H117.281L117.38 402.883L117.582 400.269H64.4021L64.1009 403.856Z" fill="#FFB531"/>
<path d="M349.179 170.062L347.814 167.303L346.256 164.157L346.157 163.96L344.501 160.617L344.464 160.637C336.109 144.672 324.233 127.894 309.106 110.711C293.081 92.4957 273.078 73.4581 249.663 54.1081C235.253 42.1991 220.064 30.5923 204.527 19.6154C199.562 16.1162 194.754 12.8096 190.241 9.79462C186.44 7.2587 184.316 5.92045 184.295 5.91003L176.999 1.27561L175.005 0.0102539L173.011 1.27561L165.725 5.90483H165.72L165.699 5.91524C165.538 6.01938 163.487 7.32119 159.774 9.79462C148.568 17.267 125.948 32.9615 100.342 54.1133C76.9324 73.4581 56.9294 92.5009 40.9042 110.716C24.7232 129.097 12.2551 147.015 3.85302 163.97L0.825571 170.073L0.00509644 171.734L0.825571 173.395L3.85302 179.493C12.2551 196.447 24.7232 214.365 40.9042 232.752C42.9035 235.028 44.9598 237.303 47.0837 239.605C48.3819 239.157 49.675 238.725 50.9732 238.303C48.465 235.611 46.04 232.94 43.698 230.279C27.7351 212.142 15.5214 194.64 7.18685 177.826L4.16978 171.729L7.18685 165.626C15.5214 148.822 27.7351 131.31 43.698 113.179C59.6557 95.0472 79.3627 76.2804 102.715 56.9876C128.544 35.6537 151.45 19.8289 161.836 12.9033C162.272 12.6169 162.682 12.3409 163.067 12.0858C163.456 11.8254 163.83 11.5807 164.173 11.3568C164.515 11.1329 164.827 10.9194 165.118 10.7319C166.468 9.84669 167.325 9.30514 167.626 9.11247C167.657 9.08644 167.683 9.07602 167.699 9.0604H167.704L175 4.42077L182.306 9.0604C182.644 9.2739 184.711 10.5861 188.169 12.8981C191.633 15.2049 196.488 18.5063 202.382 22.6669C214.159 30.988 230.081 42.7615 247.295 56.9876C270.642 76.2804 290.354 95.0472 306.312 113.179C322.27 131.31 334.489 148.817 342.823 165.626L345.84 171.729L342.823 177.826C334.489 194.635 322.27 212.142 306.312 230.279C303.83 233.101 301.254 235.934 298.58 238.792C299.966 239.204 301.291 239.61 302.558 240.001C304.811 237.569 306.998 235.153 309.111 232.752C325.287 214.365 337.755 196.447 346.162 179.493L349.19 173.395L350.01 171.734L349.19 170.073L349.179 170.062Z" fill="#663300"/>
<path d="M279.05 129.858C272.725 122.849 266.042 116.017 259.202 109.44C259.177 109.414 259.151 109.388 259.13 109.372C257.219 107.534 255.292 105.712 253.355 103.91C248.412 99.3121 243.416 94.8547 238.467 90.5744C212.113 67.7876 186.861 50.0466 175.005 42.0275C166.255 47.9429 150.209 59.1644 131.821 73.7863C112.197 89.3819 89.8939 108.873 70.9347 129.884C58.7055 143.422 47.8835 157.607 40.0371 171.729C40.707 172.942 41.4028 174.155 42.1246 175.369C42.8257 176.556 43.5527 177.754 44.3004 178.946C51.612 190.673 60.7982 202.353 70.9399 213.6C75.6446 218.807 80.5415 223.916 85.5578 228.904C86.29 228.743 87.0274 228.581 87.7648 228.425C88.4918 228.269 89.2188 228.118 89.9458 227.972C90.3768 227.884 90.8027 227.8 91.2233 227.717C91.5193 227.649 91.8153 227.592 92.1061 227.535C92.1632 227.524 92.2099 227.514 92.267 227.503L92.5319 225.546L93.7938 216.251L95.8138 201.337L95.9851 200.061L96.2604 198.01L96.7122 194.604L99.3761 174.864L100.072 169.74L103.504 144.297L125.185 181.013V184.117C125.185 189.319 125.86 194.344 127.096 199.124L131.172 197.515C130.108 193.25 129.536 188.757 129.536 184.117V148.989L139.07 137.283H162.397L175.093 151.249L187.79 137.283H211.122L220.645 148.973V184.117C220.645 188.772 220.064 193.271 218.978 197.546L223.065 199.155C224.322 194.38 224.997 189.335 224.997 184.117V180.68L246.485 144.297L249.918 169.74L250.608 174.864L253.257 194.479L253.703 197.807L254.077 200.525L254.171 201.212L257.536 225.54L257.977 228.712L257.998 228.847C258.335 228.915 258.668 228.977 259 229.045C260.153 229.274 261.29 229.513 262.417 229.743C262.744 229.81 263.076 229.878 263.398 229.946C263.497 229.841 263.585 229.743 263.642 229.68H263.648C263.689 229.628 263.715 229.607 263.72 229.597C268.986 224.384 274.142 219.031 279.07 213.569C291.294 200.02 302.122 185.84 309.963 171.724C302.116 157.591 291.289 143.402 279.06 129.852L279.05 129.858ZM224.997 172.109V147.416L224.504 146.812L213.188 132.914H185.863L175.093 144.766L164.318 132.914H137.009L125.19 147.427V172.442L104.823 137.96L121.508 116.579H228.497L245.177 137.95H245.182L225.007 172.109H224.997ZM276.297 211.064C272.159 215.647 267.755 220.281 263.087 224.962C262.702 225.348 262.308 225.743 261.918 226.118L261.763 224.962L258.886 203.66L258.19 198.541L254.477 171L253.781 165.876L249.881 136.913L234.012 116.59H240.025C241.832 116.59 243.297 115.132 243.297 113.32C243.297 111.507 241.832 110.049 240.025 110.049H109.907C108.1 110.049 106.636 111.507 106.636 113.32C106.636 115.132 108.1 116.59 109.907 116.59H115.978L100.113 136.913L96.2136 165.876L95.5178 171L91.7841 198.65L91.0883 203.774L88.0764 226.129C82.9666 221.052 78.1684 216.027 73.7077 211.09C62.5378 198.718 53.4295 186.762 46.5334 175.457C45.8012 174.254 45.0897 173.057 44.4095 171.869C44.3783 171.828 44.3524 171.776 44.3264 171.734C51.4251 159.357 61.2967 146.135 73.7025 132.394C89.8627 114.481 110.203 95.7504 134.142 76.7232C151.279 63.0907 166.432 52.4055 175.01 46.5525C175.93 47.1774 176.901 47.8439 177.918 48.5469C178.926 49.2395 179.98 49.9737 181.081 50.7444C194.613 60.2059 214.928 75.161 236.042 93.4123C251.413 106.696 264.961 119.808 276.297 132.373C288.703 146.115 298.58 159.341 305.684 171.739C298.585 184.117 288.708 197.338 276.308 211.075L276.297 211.064Z" fill="#663300"/>
<path d="M225.277 96.7137H215.416C211.08 90.3609 205.513 85.0495 199.074 81.217C191.918 76.9627 183.693 74.5361 174.964 74.5361C166.234 74.5361 158.019 76.9679 150.869 81.2118C144.43 85.0495 138.842 90.3557 134.506 96.7137H124.655C122.858 96.7137 121.394 98.1821 121.394 99.989C121.394 101.796 122.858 103.264 124.655 103.264H225.283C227.079 103.264 228.544 101.796 228.544 99.989C228.544 98.1821 227.079 96.7137 225.283 96.7137H225.277ZM140.374 96.0992C140.535 95.8962 140.701 95.6879 140.872 95.49C140.914 95.4275 140.966 95.3702 141.023 95.3077C141.028 95.2973 141.044 95.2869 141.049 95.2765C141.08 95.24 141.111 95.2036 141.142 95.1671C141.267 95.0161 141.392 94.8703 141.522 94.7245L141.532 94.7141C141.698 94.5162 141.875 94.3236 142.046 94.1205C142.16 93.9955 142.274 93.8757 142.389 93.7508C142.612 93.506 142.83 93.2665 143.053 93.027C143.095 92.9801 143.137 92.9332 143.178 92.8916C143.37 92.6937 143.562 92.4906 143.76 92.2928C143.874 92.173 143.993 92.0584 144.108 91.9439C144.263 91.7877 144.419 91.6366 144.58 91.4804C144.772 91.293 144.964 91.1107 145.157 90.9285C145.354 90.741 145.556 90.564 145.754 90.3817C145.904 90.2411 146.06 90.1057 146.216 89.9703C146.413 89.7933 146.616 89.6214 146.813 89.4496C146.979 89.309 147.151 89.1684 147.322 89.0278C147.535 88.856 147.743 88.6789 147.955 88.5123C148.091 88.403 148.22 88.2988 148.355 88.1895C148.366 88.1843 148.386 88.1686 148.397 88.1582C148.62 87.976 148.849 87.8041 149.082 87.6375C149.093 87.6271 149.108 87.6219 149.119 87.6115L149.134 87.601C149.176 87.5698 149.223 87.5386 149.264 87.5073C149.404 87.4032 149.539 87.3042 149.68 87.2001C149.773 87.1324 149.866 87.0595 149.96 86.997C150.256 86.7835 150.557 86.5752 150.863 86.3721C151.113 86.2055 151.362 86.0389 151.611 85.8775C151.746 85.7889 151.876 85.7004 152.011 85.6119C152.312 85.4244 152.614 85.237 152.92 85.0495C152.967 85.0183 153.013 84.9922 153.06 84.961C159.582 81.092 167.019 78.8998 174.938 78.8998C175.031 78.8998 175.119 78.8998 175.213 78.8998C175.369 78.8998 175.524 78.8998 175.68 78.8998C175.805 78.8998 175.924 78.905 176.049 78.9102C176.236 78.9102 176.423 78.9206 176.605 78.9258C176.657 78.9258 176.703 78.9258 176.755 78.9258C176.807 78.9258 176.849 78.931 176.901 78.931C177.072 78.9414 177.254 78.9519 177.43 78.9623C177.446 78.9623 177.467 78.9623 177.482 78.9623C177.731 78.9779 177.981 78.9935 178.225 79.0143C178.235 79.0143 178.246 79.0143 178.256 79.0143C178.422 79.0248 178.599 79.0404 178.77 79.056C178.806 79.056 178.843 79.056 178.884 79.0612C178.957 79.0716 179.04 79.0768 179.118 79.0872C179.372 79.1133 179.627 79.1445 179.881 79.1706C179.944 79.1758 180.006 79.181 180.068 79.1914C180.089 79.1914 180.11 79.1966 180.136 79.2018C180.738 79.2747 181.335 79.3684 181.932 79.4674C182.239 79.5194 182.545 79.5663 182.846 79.6236C182.872 79.6288 182.898 79.634 182.924 79.6392C183.023 79.6548 183.116 79.6757 183.215 79.6965C183.501 79.7538 183.792 79.8163 184.077 79.8787C184.16 79.8996 184.249 79.9152 184.332 79.936C184.477 79.9673 184.622 80.0037 184.768 80.0402C184.981 80.0922 185.194 80.1443 185.407 80.2016C185.51 80.2276 185.614 80.2537 185.718 80.2849C185.775 80.3005 185.827 80.3161 185.884 80.3318C186.653 80.5401 187.416 80.7692 188.169 81.0139C188.247 81.04 188.33 81.066 188.408 81.092C189.161 81.342 189.904 81.6127 190.636 81.9043C190.651 81.9096 190.662 81.9148 190.677 81.92C190.698 81.9252 190.719 81.9408 190.74 81.946C190.797 81.972 190.859 81.9981 190.921 82.0189C190.953 82.0293 190.984 82.0449 191.015 82.0606C191.482 82.2532 191.944 82.4511 192.401 82.6594C192.401 82.6594 192.407 82.6594 192.412 82.6594C192.568 82.7271 192.718 82.7948 192.858 82.8573C192.889 82.8729 192.915 82.8833 192.947 82.8989C193.149 82.9927 193.346 83.0916 193.544 83.1853C193.544 83.1853 193.549 83.1853 193.554 83.1853C193.637 83.2218 193.715 83.2582 193.798 83.3051C193.824 83.3155 193.845 83.3311 193.871 83.3415C194.25 83.529 194.629 83.7321 195.003 83.93C195.169 84.0185 195.34 84.107 195.507 84.2007C195.652 84.2788 195.797 84.3674 195.938 84.4455C196.234 84.6121 196.524 84.7787 196.815 84.9506C196.872 84.9818 196.919 85.0131 196.971 85.0391C196.992 85.0547 197.018 85.0651 197.039 85.0808C197.049 85.086 197.07 85.1016 197.08 85.1068L197.174 85.1641C197.21 85.1901 197.246 85.2057 197.288 85.2318C197.324 85.2578 197.361 85.2734 197.402 85.2995C197.433 85.3203 197.459 85.3359 197.49 85.3567C197.693 85.4817 197.906 85.6119 198.103 85.7421C198.186 85.7994 198.274 85.8566 198.358 85.9087C198.581 86.0545 198.799 86.2003 199.017 86.3461C199.105 86.4034 199.188 86.4607 199.277 86.5179C199.375 86.5856 199.479 86.6637 199.588 86.7314C199.812 86.8877 200.035 87.0491 200.258 87.2105C200.362 87.2886 200.466 87.3615 200.57 87.4344L200.591 87.45C200.996 87.7469 201.401 88.0593 201.795 88.3717C201.884 88.4394 201.967 88.5071 202.05 88.58C202.159 88.6633 202.263 88.7518 202.366 88.8352C202.45 88.9029 202.533 88.9705 202.616 89.0382C202.647 89.0695 202.683 89.0955 202.72 89.1268C202.995 89.3559 203.265 89.5954 203.54 89.8297C203.597 89.8818 203.659 89.9339 203.717 89.986C203.831 90.0849 203.945 90.189 204.059 90.2932C204.101 90.3348 204.148 90.3713 204.189 90.4077C204.303 90.5067 204.412 90.6056 204.527 90.715C204.76 90.9337 204.994 91.1576 205.228 91.3815C205.254 91.4023 205.274 91.4284 205.295 91.4492C205.503 91.6471 205.7 91.8501 205.903 92.0532C206.038 92.1886 206.178 92.3188 206.313 92.4594C206.531 92.6833 206.749 92.9124 206.967 93.1467C207.014 93.1988 207.066 93.2457 207.113 93.2977C207.123 93.3134 207.139 93.3238 207.149 93.3342C207.3 93.4956 207.445 93.657 207.596 93.8289C207.726 93.9747 207.855 94.1153 207.985 94.2663C208.136 94.4433 208.292 94.6204 208.437 94.7922C208.453 94.8078 208.468 94.8287 208.478 94.8443C208.536 94.9068 208.588 94.9588 208.629 95.0213C208.634 95.0317 208.65 95.0474 208.655 95.0578C208.717 95.1307 208.774 95.2036 208.837 95.2765C208.977 95.4431 209.122 95.6098 209.257 95.7816C209.299 95.8389 209.346 95.8857 209.387 95.943C209.59 96.1878 209.787 96.4325 209.979 96.6824H139.834C139.865 96.646 139.891 96.6095 139.922 96.5731C140.052 96.4013 140.187 96.2294 140.322 96.068L140.374 96.0992Z" fill="#663300"/>
<path d="M140.94 223.973C141.153 224.197 141.371 224.41 141.584 224.629C141.807 224.848 142.025 225.061 142.249 225.275C142.472 225.478 142.695 225.691 142.924 225.905C143.599 226.53 144.295 227.134 145.006 227.717C148.215 230.378 151.726 232.612 155.49 234.361C160.917 236.876 166.847 238.381 173.068 238.637L175.119 255.555L177.108 238.631C183.272 238.35 189.145 236.856 194.52 234.367C198.295 232.617 201.826 230.373 205.046 227.727C207.134 226.014 209.096 224.119 210.961 222.01C211.054 221.911 211.148 221.807 211.241 221.697H211.246C211.246 221.697 211.267 221.671 211.277 221.661C211.298 221.64 211.314 221.619 211.335 221.598C213.069 219.599 214.658 217.448 216.102 215.188C216.237 214.975 216.377 214.772 216.512 214.558C216.849 214.017 217.171 213.46 217.493 212.902C217.784 212.392 218.065 211.877 218.345 211.345C218.875 210.34 219.378 209.315 219.846 208.268L215.504 207.263C215.094 208.127 214.668 208.976 214.211 209.809C214.061 210.091 213.905 210.361 213.749 210.637C213.282 211.46 212.799 212.267 212.29 213.059C211.786 213.85 211.257 214.621 210.711 215.376C210.171 216.131 209.605 216.87 209.013 217.589C208.432 218.313 207.829 219.011 207.206 219.687C206.957 219.963 206.703 220.229 206.443 220.5C206.225 220.729 206.007 220.953 205.778 221.177H205.773C205.773 221.177 205.721 221.234 205.7 221.26C205.612 221.354 205.519 221.442 205.435 221.526C205.212 221.75 204.989 221.963 204.76 222.171C204.21 222.702 203.644 223.213 203.062 223.697C202.969 223.786 202.875 223.864 202.777 223.947C202.501 224.176 202.226 224.41 201.941 224.634C201.889 224.676 201.837 224.723 201.785 224.759C201.458 225.02 201.125 225.275 200.793 225.525C200.471 225.769 200.149 226.009 199.817 226.243C199.734 226.306 199.656 226.363 199.573 226.41C199.282 226.623 198.981 226.827 198.685 227.019C198.332 227.264 197.968 227.493 197.605 227.722H197.599C196.021 228.717 194.395 229.623 192.703 230.409C188.019 232.575 182.95 233.903 177.633 234.226C177.202 234.257 176.776 234.283 176.345 234.294C176.776 234.273 177.202 234.257 177.633 234.226L178.396 227.722L179.279 220.219L179.284 220.167L181.304 203.04L175.099 200.764L168.784 203.134L170.83 220.062L170.856 220.245V220.271L171.765 227.727L172.554 234.247C169.864 234.091 167.237 233.679 164.697 233.034C162.158 232.393 159.697 231.508 157.339 230.409C155.657 229.623 154.021 228.722 152.453 227.722C152.099 227.498 151.751 227.274 151.404 227.035C151.061 226.811 150.718 226.571 150.386 226.332C149.68 225.832 148.984 225.311 148.303 224.764C148.054 224.572 147.805 224.364 147.566 224.16C147.301 223.942 147.036 223.718 146.777 223.484C146.595 223.332 146.418 223.171 146.242 223.01C146.045 222.838 145.842 222.656 145.645 222.463C145.562 222.395 145.484 222.317 145.411 222.244C145.167 222.015 144.933 221.781 144.694 221.552L144.58 221.437C144.539 221.395 144.492 221.354 144.455 221.307C144.295 221.156 144.139 221 143.988 220.838C143.921 220.765 143.843 220.687 143.775 220.614C143.651 220.495 143.531 220.38 143.427 220.255C143.183 220.005 142.955 219.75 142.731 219.495C142.482 219.234 142.254 218.964 142.03 218.698C141.833 218.479 141.646 218.261 141.464 218.037C141.189 217.709 140.919 217.37 140.654 217.032C140.457 216.787 140.27 216.537 140.083 216.292C139.398 215.391 138.749 214.459 138.125 213.512C137.85 213.1 137.591 212.684 137.331 212.262C136.349 210.653 135.456 208.981 134.636 207.247L130.31 208.252H130.305C130.455 208.591 130.611 208.919 130.772 209.247C131.24 210.242 131.733 211.221 132.257 212.179C132.257 212.184 132.263 212.184 132.263 212.189C132.351 212.34 132.429 212.496 132.517 212.642L132.616 212.543H132.621L132.517 212.647C132.746 213.064 132.99 213.475 133.234 213.881C133.478 214.293 133.722 214.699 133.981 215.1C134.168 215.386 134.35 215.678 134.547 215.964C134.901 216.511 135.269 217.053 135.648 217.584C135.804 217.808 135.97 218.037 136.142 218.261C136.292 218.474 136.448 218.682 136.609 218.891C136.734 219.057 136.864 219.234 136.988 219.396C137.118 219.568 137.248 219.734 137.388 219.901C137.637 220.213 137.887 220.515 138.141 220.823C138.245 220.953 138.354 221.083 138.463 221.208C138.65 221.437 138.842 221.671 139.045 221.895C139.076 221.932 139.112 221.979 139.143 222.015C139.231 222.119 139.325 222.218 139.418 222.322C139.507 222.421 139.59 222.52 139.683 222.619C140.099 223.083 140.519 223.53 140.955 223.973H140.94Z" fill="#663300"/>
<path d="M183.818 164.043V172.479L210.384 167.792L210.415 167.787L183.818 164.043Z" fill="#663300"/>
<path d="M166.266 164.043L139.668 167.787L139.699 167.792L166.266 172.479V164.043Z" fill="#663300"/>
<path d="M132.289 201.348L128.233 202.946L127.657 203.175L126.317 203.701L125.922 203.863L123.814 204.691L121.254 205.701L120.355 206.055L118.875 206.638L118.751 206.685L118.6 206.747L118.216 206.898L118.621 206.805L118.829 206.763L118.917 206.737L120.714 206.32L121.659 206.107L122.838 205.831L124.551 205.435L127.392 204.779L127.994 204.644L128.773 204.461L129.168 204.368L133.047 203.477L175.042 193.787L217.109 203.498L221.393 204.482L223.045 204.862L225.231 205.368L225.309 205.383L225.361 205.399L225.88 205.519L227.225 205.826L228.149 206.044L229.359 206.32L230.99 206.701L231.161 206.737L231.857 206.898L231.203 206.638L231.093 206.591L229.723 206.055L228.585 205.607L227.775 205.289L226.586 204.816L225.651 204.451L225.532 204.399L224.078 203.826L221.918 202.977L217.872 201.379L175.042 184.487L136.458 199.702L132.289 201.348Z" fill="#663300"/>
<path d="M68.7485 268.333L68.9199 266.657L70.701 266.651L70.5349 268.333H85.5682L85.7344 266.657L86.6276 257.919L86.8405 255.852H85.2203L85.293 255.123L85.6461 251.686H51.3835L51.0979 254.472L50.2047 263.215L49.8568 266.651H53.8865L53.7151 268.333H68.7485ZM70.9036 254.8H82.3123L82.2085 255.852L82.0163 257.721L81.8501 259.377L81.4295 263.537H70.0104L70.9036 254.8ZM53.1907 263.537L53.4139 261.35L54.0838 254.8H65.4926L65.3887 255.852L65.1966 257.721L64.6046 263.537H53.1855H53.1907Z" fill="#663300"/>
<path d="M298.471 324.566L297.614 325.04L296.347 322.15L295.039 319.14L292.224 320.676L284.44 324.936L281.937 326.305L283.105 328.977L307.289 384.335L308.608 387.344L311.422 385.808L311.593 385.709L312.388 387.532L313.177 389.333L314.865 388.412L322.649 384.152L324.145 383.33L323.449 381.731L299.26 326.373L298.471 324.566ZM317.799 378.799L314.813 380.429L311.941 381.996L310.347 382.866L310.02 383.048L285.837 327.696L291.57 324.556L293.621 323.436L294.956 326.488L295.703 328.195L316.734 376.347L317.804 378.794L317.799 378.799Z" fill="#663300"/>
<path d="M178.588 381.918L178.23 381.09H189.13L189.924 382.923L191.233 385.938L194.047 384.392L194.229 384.293L195.019 386.11L195.808 387.922L197.496 386.995L205.285 382.741L206.78 381.918L206.422 381.09H209.252L211.22 385.631L212.529 388.651L215.349 387.105L215.53 387.006L216.32 388.823L217.104 390.635L218.802 389.708L226.586 385.449L228.082 384.631L227.386 383.033L226.55 381.09H251.652L252.447 382.923L253.755 385.938L256.575 384.392L256.757 384.293L257.546 386.11L258.335 387.922L260.023 386.995L267.807 382.741L269.303 381.918L268.944 381.09H282.783L284.201 384.334L285.51 387.349L288.324 385.813L288.506 385.714L289.295 387.532L290.085 389.339L291.772 388.417L299.556 384.157L301.057 383.335L300.356 381.736L276.173 326.378L275.384 324.571L274.522 325.045L273.26 322.155L271.941 319.145L269.131 320.681L261.342 324.941L258.839 326.31L260.013 328.987L275.186 363.657H261.352L252.779 343.947L249.923 337.381L249.134 335.569L248.266 336.048L247.01 333.158L245.701 330.143L242.887 331.689L235.642 335.652H206.786L206.749 335.569L206.614 335.652H205.716L204.631 333.163L203.322 330.148L200.502 331.695L192.718 335.954L190.22 337.318L191.384 339.99L201.681 363.657H197.039L193.835 356.283L193.045 354.476L192.178 354.95L190.921 352.065L189.613 349.05L186.793 350.586L179.009 354.846L176.511 356.21L177.674 358.882L179.746 363.651H170.648L159.219 337.381L158.43 335.569L157.562 336.048L156.306 333.158L154.997 330.143L152.177 331.689L144.393 335.949L141.895 337.313L143.059 339.985L153.356 363.651H132.076L120.646 337.381L119.857 335.569L118.99 336.048L117.733 333.158L116.424 330.143L113.605 331.689L105.82 335.949L103.323 337.313L104.486 339.985L114.783 363.651H87.8947L76.4651 337.381L75.6758 335.569L74.8086 336.048L73.5519 333.158L72.2433 330.143L69.4236 331.689L61.6395 335.949L59.1417 337.313L60.3049 339.985L70.6024 363.651H65.1914L64.9058 366.437L64.0178 375.18L63.6647 378.622H69.2574L69.2211 379.013L69.0082 381.08H78.1892L80.5052 386.412L81.8138 389.427L84.6335 387.881L84.8049 387.787L85.5994 389.604L86.3887 391.411L88.0764 390.489L95.8605 386.23L97.3561 385.407L96.6602 383.809L95.4763 381.08H122.365L124.047 384.949L125.356 387.964L128.176 386.428L128.347 386.329L129.142 388.146L129.926 389.958L131.614 389.031L139.403 384.772L140.898 383.954L140.203 382.345L139.652 381.08H160.933L161.727 382.913L163.036 385.928L165.855 384.381L166.027 384.282L166.821 386.1L167.605 387.912L169.293 386.985L177.082 382.731L178.578 381.908L178.588 381.918ZM170.43 378.367L166.39 380.58L164.796 381.455L164.458 381.642L164.214 381.096H164.22L163.404 379.226L161.789 375.519H132.849L134.553 379.424L128.7 382.626L127.106 383.496L126.769 383.684L125.637 381.09L124.826 379.221L124.795 379.164L123.211 375.513H88.6632L90.5534 379.851L91 380.877L85.1476 384.079L84.5556 384.402L83.5482 384.949L83.2107 385.136L81.4451 381.085L80.6298 379.216L79.02 375.508H66.9674L67.8553 366.765H75.2137L66.2092 346.061L63.0052 338.698L69.8702 334.944L70.7893 334.439L72.1187 337.496L72.8665 339.203L84.8568 366.765H119.405L107.191 338.698L111.813 336.168L114.976 334.434L116.305 337.49L117.053 339.198L123.523 354.07L129.038 366.76H157.978L145.764 338.693L152.027 335.267L153.548 334.434L154.878 337.49L155.625 339.198L167.616 366.76H184.373L180.385 357.59L184.274 355.46L188.169 353.336L189.499 356.392L190.246 358.1L194.011 366.76H206.308L194.094 338.693L200.165 335.371L201.878 334.428L203.213 337.485L203.758 338.75H236.51L236.479 338.688L241.64 335.866L244.263 334.428L245.597 337.485L246.335 339.193L247.119 340.995L258.325 366.755H279.823L262.723 327.68L268.7 324.41L270.507 323.42L271.842 326.472L272.59 328.18L294.696 378.784L293.216 379.585L288.843 381.986L287.249 382.856L286.912 383.038L286.055 381.075L285.738 380.351L285.24 379.205L283.111 374.305L282.986 375.503H262.137L262.734 376.872L262.947 377.367L257.094 380.57L255.5 381.444L255.162 381.632L254.929 381.085L254.114 379.216L253.013 376.685L252.499 375.508H219.752L221.726 380.085L215.878 383.283L214.284 384.152L213.941 384.345L212.524 381.08L211.714 379.211L210.104 375.503H199.604L199.973 376.331L200.419 377.367L194.567 380.57L192.973 381.444L192.635 381.632L192.391 381.085L191.576 379.216L189.966 375.508H171.412L172.222 377.372L170.41 378.362L170.43 378.367Z" fill="#663300"/>
<path d="M87.5 340.115H102.533L102.7 338.443L103.593 329.7L103.806 327.633H100.628L100.783 326.128L101.136 322.681H83.6884L83.408 325.467L82.5148 334.21L82.1669 337.652H87.7493L87.7129 338.042L87.5 340.11V340.115ZM85.4956 334.538L86.3887 325.795H97.7975L97.6105 327.633L97.4184 329.503L96.9095 334.543H85.4904L85.4956 334.538Z" fill="#663300"/>
<path d="M119.971 400.534L120.251 397.78H62.247L62.0185 400.008L61.7226 403.591L61.4421 406.345H66.4221L66.3027 407.517L66.0898 409.584H121.659L121.825 407.908L122.131 404.95L122.344 402.888H119.8L119.971 400.534ZM117.38 402.888L117.281 403.851H64.1061L64.4021 400.269H117.588L117.385 402.883L117.38 402.888Z" fill="#663300"/>
<path d="M298.289 254.17H259.296L257.972 251.134L257.188 249.322L256.32 249.801L255.059 246.911L253.75 243.896L250.935 245.442L243.146 249.702L240.648 251.066L241.817 253.737L242.004 254.17H241.599L241.313 256.955L240.425 265.698L240.072 269.146H245.665L245.623 269.536L245.41 271.603H249.591L257.323 289.386H234.931L218.288 251.134L217.504 249.322L216.636 249.801L215.375 246.911L214.066 243.896L211.251 245.442L203.462 249.702L200.964 251.066L202.133 253.737L204.958 260.236L186.331 289.386H173.79L158.824 254.987L158.04 253.18L157.173 253.654L155.911 250.769L154.602 247.754L151.788 249.29L143.999 253.55L141.501 254.914L142.669 257.586L156.498 289.381H127.849L130.419 294.041L135.243 302.784L136.105 304.346H139.45L140.286 305.872L140.805 306.804H164.074L165.7 310.543L167.008 313.558L169.828 312.022L169.999 311.923L170.789 313.74L171.578 315.547L173.266 314.625L181.055 310.366L182.55 309.548L181.855 307.939L181.356 306.804H264.889L266.509 310.543L267.828 313.558L270.642 312.022L270.824 311.923L271.613 313.74L272.403 315.547L274.09 314.625L281.875 310.366L283.37 309.548L282.674 307.939L282.186 306.804H305.902L306.068 305.133L306.961 296.39L307.174 294.328H303.996L304.152 292.812L304.505 289.376H274.605L266.872 271.593H299.686L299.852 269.921L300.746 261.179L300.958 259.111H297.78L297.936 257.606L298.284 254.164L298.289 254.17ZM294.774 259.122L294.582 260.991L294.067 266.032H260.085L271.603 292.505H301.182L300.995 294.343L300.803 296.213L300.294 301.248H275.409L277.05 305.023L271.639 307.981L271.193 308.226L269.604 309.095L269.261 309.278L268.191 306.825L267.381 304.956L265.766 301.248H174.579L176.22 305.023L170.368 308.226L169.989 308.429L168.774 309.095L168.436 309.278L167.87 307.986L167.366 306.82L166.551 304.95L164.936 301.243H137.84L134.028 294.343L133.016 292.505H161.135L149.519 265.808L145.39 256.31L153.18 252.05L154.509 255.107L155.246 256.815L170.773 292.505H187.93L208.359 260.528L204.968 252.727L204.849 252.462L209.766 249.769L212.638 248.202L213.967 251.259L214.705 252.967L231.904 292.505H261.955L252.862 271.609L252.047 269.739L250.437 266.032H243.395L244.283 257.289H246.631L244.533 252.462L250.478 249.212L252.322 248.202L253.651 251.259L254.389 252.967L254.654 253.581L256.269 257.289H294.945L294.758 259.127L294.774 259.122Z" fill="#663300"/>
<path d="M214.85 275.436L212.274 269.5L204.927 280.997L197.579 292.5H222.281L215.728 277.441L214.85 275.436ZM206.297 289.386L212.861 278.279L217.634 289.386H206.297Z" fill="#663300"/>
<path d="M63.1818 304.753L62.9792 306.815H65.3835L66.8012 307.695L73.7233 311.954L76.1691 313.459L76.2678 313.308L78.3346 314.584L79.8093 315.485L80.7544 314.001L85.3501 306.804H113.605L115.713 311.652L117.022 314.667L119.841 313.131L120.023 313.032L120.812 314.849L121.602 316.662L123.289 315.735L131.073 311.475L132.569 310.658L131.873 309.049L106.672 251.129L105.888 249.317L105.021 249.796L103.764 246.906L102.445 243.891L99.6306 245.437L91.8464 249.697L89.3487 251.061L90.5119 253.732L93.3368 260.231L74.7151 289.381H59.1625L58.8769 292.167L57.9889 300.91L57.6358 304.346H63.2285L63.1869 304.747L63.1818 304.753ZM60.9696 301.238L61.8576 292.5H76.3249L87.5 274.999L96.7485 260.522L93.3576 252.722L93.2433 252.457L98.1558 249.764L101.027 248.197L102.357 251.254L103.094 252.962L112.286 274.087L126.218 306.122L120.366 309.325L118.777 310.194L118.434 310.382L116.886 306.815L116.071 304.945L114.456 301.238H80.365L75.2344 309.267L72.8924 307.83L72.5341 307.606L71.3398 306.877L71.2515 306.815L68.3175 305.013L68.3539 304.945L70.7218 301.238H60.9592H60.9696Z" fill="#663300"/>
<path d="M104.112 277.441L103.245 275.436L100.659 269.5L93.3108 280.997L85.9629 292.5H110.665L104.112 277.441ZM101.256 278.279L106.018 289.386H94.6818L101.256 278.279Z" fill="#663300"/>
<path d="M215.956 366.771H248.708L246.21 361.032L242.751 353.086L241.941 351.217L240.326 347.509H207.575L210.961 355.289L215.956 366.765V366.771ZM239.464 353.086L244.06 363.657H218.968L214.372 353.086H239.47H239.464Z" fill="#663300"/>
<path d="M161.145 397.623L161.499 394.187H127.236L126.95 396.972L126.062 405.715L125.709 409.152H129.5L129.396 410.173L129.194 412.24H144.227L144.393 410.563L144.539 409.147H146.33L146.226 410.167L146.013 412.235H161.047L161.218 410.558L162.106 401.815L162.319 399.753H160.938L161.156 397.618L161.145 397.623ZM141.127 399.487L141.096 399.763L140.909 401.633L140.457 406.043H129.048L129.936 397.306H141.355L141.132 399.493L141.127 399.487ZM157.915 399.763L157.723 401.633L157.277 406.043H145.858L146.527 399.493L146.751 397.306H158.17L157.915 399.763Z" fill="#663300"/>
<path d="M203.976 397.082L203.888 397.623L203.462 397.993L202.652 398.201L202.496 398.295L202.117 405.236L202.05 412.193L202.205 412.865L202.06 413.375L201.619 413.672L201.323 413.766L200.814 413.839L199.562 413.698L197.828 413.344L197.07 412.99L196.758 412.729L196.608 412.214V411.777L197.013 411.35L197.496 411.23L197.932 411.334L198.139 411.438L198.409 411.516L198.633 411.537L199.064 411.469L199.225 410.881L199.536 406.47L199.651 406.002L197.464 405.934H195.122L194.811 409.704L194.619 410.22L194.494 410.407L194.453 410.652L194.182 410.975L194.26 411.23L194.203 411.48L194.645 411.823L194.884 412.36L194.748 412.886L194.499 413.318L194.11 413.672L193.798 413.802L193.149 413.938L192.432 413.974H191.716L190.973 413.938L190.215 413.839L189.774 413.698L188.444 412.886L188.211 412.677L187.915 412.365L187.151 411.35L186.964 410.902L187.11 410.423L187.307 410.079L187.852 409.871L188.429 410.063L188.668 410.256L188.771 410.376L188.875 410.443L189.135 410.548L189.504 410.652L189.696 410.667L189.846 406.866L189.909 406.47L190.049 406.122L189.981 405.981L189.857 405.502L190.215 404.945L190.262 404.809L190.028 404.481L189.919 404.169L190.132 401.612V400.414L190.101 399.529H190.049L189.119 399.654L188.704 399.758L188.304 399.899L187.453 400.378H186.949L186.668 400.159L187.047 398.415L187.691 398.066L188.019 397.806L188.283 397.67L189.384 397.176L190.485 396.769L193.113 395.957L193.616 396.144L194.619 396.998L195.091 397.649L195.283 397.993L195.418 398.441L195.392 399.31L195.304 403.632L197.496 403.658L199.775 403.747L199.786 403.632V399.066L199.744 398.384L199.682 398.248L199.635 398.233L199.386 398.16H198.866L198.373 397.998L198.098 397.79L197.885 397.337L197.838 396.967L198.004 396.447L198.508 396.212L198.835 396.176L199.323 396.238L200.757 396.264L203.099 396.16L203.535 396.353L203.826 396.712L203.976 397.082Z" fill="#663300"/>
<path d="M186.471 398.009L186.253 400.159L186.185 401.393L186.102 401.763L185.687 402.169L185.401 402.315H185.001L184.513 402.232L182.784 402.112L182.042 402.169L181.626 402.242L181.211 402.216L180.764 401.987L180.546 401.763L180.427 401.289L180.478 400.68L180.437 399.482L179.009 399.904L178.137 400.248L177.778 400.977L177.332 401.331L177.181 401.383L177.389 401.81L177.114 402.372L177.01 402.44L177.098 402.555L177.139 403.018L177.124 403.122L176.916 403.945L176.766 404.716L176.646 405.731L176.335 407.475L176.272 408.267L176.288 409.006L176.335 409.147L176.579 409.517L177.067 409.912L177.97 410.532L178.266 410.704L178.962 411.016L179.393 411.183L179.798 411.277L180.707 411.433L182.265 411.605L183.812 411.693L184.124 411.662L184.581 411.886L184.856 412.313L184.97 412.782L184.866 413.302L184.674 413.641L184.228 413.901L183.786 414L181.356 413.839L178.952 413.495L177.202 413.104L176.444 412.808L176.013 412.745L175.743 412.604L175.488 412.422L175.296 412.328L174.995 412.261L174.735 412.125L173.406 411.245L172.461 410.527L171.136 409.287L170.705 408.611L170.477 408.131L170.539 407.46L170.7 407.09L171.105 406.564L171.074 406.522L171.095 405.955L171.282 405.476L171.043 405.278L170.752 404.882L170.778 404.341L171.09 403.304L171.526 402.044L172.04 400.8L173.302 398.248L173.499 398.014L173.837 397.759H174.714L183.771 396.118H183.885L184.404 396.238L185.043 396.608L186.071 397.165L186.367 397.504L186.471 398.009Z" fill="#663300"/>
<path d="M230.637 397.16V397.743L230.164 398.128L229.884 398.222L229.343 398.352L229.053 398.519L228.928 398.774L228.897 398.946L228.726 404.429L228.814 407.173L229.136 410.293L229.125 410.397L229.073 410.615V410.844L229.198 411.438L229.245 412.381L229.198 412.823L228.762 413.266L227.983 413.63L227.573 413.734L227.012 413.557L226.789 413.386L226.373 412.854L226.254 412.433L226.326 410.844L226.3 409.454L225.968 408.871L225.854 408.512L224.01 406.413L221.824 404.132L220.832 403.185L220.775 404.57L220.49 407.194L220.889 408.262L220.723 408.907L220.432 409.319L220.812 409.84L220.9 410.35L220.728 411.537L220.796 412.172L220.9 412.599V413.016L220.573 413.438L220.22 413.688L219.851 413.807L219.363 413.854L218.438 413.839L217.862 413.781L216.813 413.594L216.133 413.36L214.881 412.808L214.409 412.417L213.728 411.672L213.308 411.11L213.121 410.735L213.059 410.308L213.396 409.787L213.879 409.605L214.44 409.735L214.689 409.892L214.84 410.048L214.985 410.126L215.676 410.339L215.686 403.929L215.78 403.544L216.107 403.226L215.998 402.976L215.863 402.492L216.091 401.81L216.055 401.753L216.019 401.555L215.806 400.904L215.847 400.258L215.733 400.248L215.359 400.159L214.57 399.951L212.643 399.258L212.378 398.998L212.207 398.04L212.643 397.592L213.001 397.415L213.474 397.535L213.651 397.613L213.952 397.712L214.248 397.728L215.24 397.649L216.055 397.504L216.891 397.311L217.711 397.061L218.542 396.759L218.838 396.608L219.347 396.249L219.835 396.181L220.251 396.374L220.635 396.629L222.375 398.134L222.863 398.639L224.052 399.639L224.218 400.071L224.187 400.586V400.602L224.519 400.633L224.961 400.946L225.184 401.289L225.335 401.711L225.397 401.763L226.02 401.945L226.42 402.242L226.461 401.852L226.534 400.467L226.384 399.29L226.285 398.92L226.223 398.785L226.093 398.649L225.376 398.097L225.241 398.04L224.514 397.769L224.203 397.431L224 397.025L224.28 396.447L224.753 396.181L225.137 396.113L226.197 396.322H226.69L227.292 396.384L227.692 396.441H228.024L229.255 396.342L229.759 396.389L230.091 396.462L230.501 396.889L230.637 397.16Z" fill="#663300"/>
<path d="M245.415 410.35L245.234 410.157L243.967 408.048L243.032 406.148L240.809 400.946L241.225 400.185L241.536 399.529L241.692 399.014L241.069 397.623L240.591 396.681L240.384 396.363L239.973 396.124H239.48L238.26 397.004L236.141 398.149L234.443 398.967L233.581 399.326L233.181 399.446L232.776 399.534L232.142 399.607L231.888 399.831L231.54 400.43L231.722 400.847L232.002 401.169L232.568 401.393L233.882 401.237L235.835 400.893L235.923 401.237L235.793 401.268L235.502 401.419L235.18 401.695L235.076 402.065L235.04 402.476L235.076 402.716L234.957 402.805L231.727 408.736L231.717 408.746L231.177 408.538L230.938 408.361L230.844 408.246L230.46 407.954H229.904L229.468 408.251L229.255 408.798L230.138 410.558L230.574 411.277L231.228 412.157L233.062 413.771H233.607L233.981 413.568L234.323 413.198L234.531 412.729L234.557 412.401L234.941 412.12L235.409 411.152L239.096 410.975L242.611 411.011L242.632 411.131L242.606 411.245L242.481 411.475L242.3 411.672L242.165 411.792L241.822 411.948L241.536 412.021L241.168 412.151L240.955 412.375L240.669 413.032L240.955 413.469L241.297 413.75L241.884 413.943L242.331 413.839L243.266 413.396L244.756 412.839L245.566 412.589L245.883 412.552L246.459 412.276L246.641 411.73L246.49 411.214L245.415 410.339V410.35ZM239.013 408.954L236.39 409.069L236.349 408.985L236.8 408.71L236.951 408.194L236.884 407.694L236.816 407.632L237.247 407.423L238.389 405.252L239.324 403.549L241.754 408.715L239.018 408.954H239.013Z" fill="#663300"/>
<path d="M270.409 405.549L270.222 405.163L269.884 404.908L269.801 404.872L269.838 404.419L269.651 403.94L269.152 403.32L269.162 403.127L269.059 402.529L268.877 402.003L268.368 400.951L268.077 400.446L267.771 399.972L267.059 399.154L266.317 398.425L265.512 397.764L264.759 397.202L264.266 396.676L263.793 396.405L263.346 396.082L262.879 396.134L261.093 396.712L259.919 397.144L257.582 398.253L256.326 398.946L255.703 399.337L255.1 399.753L253.288 401.294L251.621 402.935L251.413 403.179L251.205 403.721L251.195 403.825L251.226 404.231L251.709 405.913L251.932 406.262L252.249 406.585L252.628 406.684H252.67L252.566 407.153L252.794 407.564L253.2 407.934L253.527 408.079L253.475 408.236L253.464 408.824L253.885 409.652L254.165 410.089L255.007 411.162L256.964 412.854L257.292 413.104L258.039 413.542L258.642 413.807L259.135 413.859L259.504 413.745L259.748 413.708L261.596 413.047L264.619 411.829L265.958 411.193L268.539 409.709L269.287 409.204L270.035 408.574L270.393 408.095L270.705 407.241L270.57 406.252L270.388 405.554L270.409 405.549ZM264.006 408.413L262.848 408.887L262.334 409.183L262.069 409.371L261.586 409.579L261.389 409.61L261.165 409.465L260.672 409.001L260.319 408.788H259.95L259.301 408.97H259.208V408.402L259.078 407.871L258.751 407.517L258.476 407.304L258.013 407.007L257.956 406.944L257.998 406.398L257.941 405.887L257.25 404.335L256.492 402.903L256.378 402.721L256.336 402.601L256.326 402.325L256.7 401.888L257.551 401.258L257.956 401.003L259.213 400.321L259.711 400.102L260.407 400.524L260.734 400.795L261.467 401.508L261.773 401.867L262.085 402.279L262.396 402.534L262.874 402.732L263.05 402.7L263.076 402.836L263.367 403.117L263.554 403.409L264.203 404.164L264.904 405.497L265.501 406.892L265.714 407.465L264.011 408.402L264.006 408.413Z" fill="#663300"/>
<path d="M290.936 411.933L290.614 411.886L290.266 411.771L289.846 411.48L289.654 411.277L289.56 404.71L289.892 398.144L289.965 397.837L289.97 397.493L289.799 396.988L289.565 396.728L288.999 396.446L288.636 396.483L288.335 396.577L287.945 396.795L287.608 397.353L286.652 398.43L286.418 398.613L286.122 398.805L285.951 399.133L285.873 399.654L285.8 400.039L285.478 400.003L285.094 400.237L284.222 401.55L283.557 402.424L282.981 403.06L280.883 400.06L278.26 396.623L278.068 396.415L277.606 396.16L277.108 396.223H276.926L275.088 397.108L274.631 397.243L274.054 397.483L272.87 397.67L271.79 397.78L271.172 397.556L270.383 397.837L270.102 398.331L270.16 398.686L270.404 399.144L270.85 399.477L273.561 400.227L273.654 400.237L274.059 400.227V400.576L273.95 401.523L273.717 402.216L273.836 402.742L274.236 403.169L273.795 403.867L273.634 404.413L273.789 405.059V405.314L273.514 410.105L273.436 410.095L273.228 409.876L272.351 409.688L272.076 409.657L271.567 409.782L271.219 410.23V410.766L271.598 411.485L271.878 411.922L272.205 412.308L272.533 412.641L273.026 413.052L273.462 413.281L273.732 413.448L274.662 413.672L274.719 413.682L276.926 413.635L277.331 413.698H277.409L277.632 413.672L278.208 413.412L278.416 413.021L278.494 412.568L278.593 410.069L278.525 407.564L278.38 407.121L278.354 407.09L278.562 406.913L278.915 406.522V406.106L278.733 405.569L278.582 405.34L278.78 404.809L278.925 401.654L279.237 402.07L281.516 405.642L282.794 407.512L282.851 407.913L282.918 408.163L283.318 408.709L283.749 408.808H283.858L284.222 408.767L284.528 408.543L285.759 406.892L286.096 406.314L286.18 406.033L286.662 405.97L287.177 405.439L287.135 410.662L287.01 411.131L286.979 411.204L286.611 411.454L286.231 411.636L285.629 411.87L284.803 412.016H284.554L284.232 412.11L283.744 412.459L283.604 412.901L283.645 413.198L283.947 413.766L284.331 413.911L284.715 413.958L285.193 413.828L285.556 413.797L288.205 413.755L290.599 413.839L291.004 413.734L291.326 413.526L291.627 413.099V412.526L291.341 412.188L290.936 411.933Z" fill="#663300"/>
<path d="M309.371 407.382L309.34 406.877L309.028 406.903L309.335 406.84L309.189 406.356L308.966 405.887L308.644 405.387L308.348 405.08L308.062 404.913L308.01 404.664L307.559 403.914L305.097 401.003L303.965 399.795L302.714 398.602L300.974 397.285L299.65 396.394L299.343 396.259L298.814 396.207L298.435 396.322L297.786 396.769L296.176 397.524L294.561 398.118L293.304 398.477L292.697 398.592L292.427 398.623H292.146L291.554 398.566L291.263 398.691L290.832 399.081L290.76 399.607L290.915 399.977L291.134 400.232L291.575 400.461L291.689 400.482H291.928L293.756 400.618L294.722 400.644L295.231 400.633V400.961L295.61 401.404L295.838 401.503L295.501 402.164L295.314 402.638L295.527 403.138L295.786 403.445L295.376 404.127L295.08 409.574L294.8 409.522L294.021 409.225L293.273 408.902L292.292 408.21H291.777L291.326 408.434L291.05 408.907L291.134 409.444L292.099 410.647L292.961 411.506L294.161 412.433L295.044 413.162L295.921 413.568L296.16 413.729L296.508 413.917L296.898 413.984L297.256 413.927L300.315 412.875L303.342 411.636L303.773 411.423L304.173 411.042L304.417 410.735L304.536 410.506L304.728 410.496L305.056 410.428L305.518 410.142L305.835 409.808H306.089L306.364 409.881H306.463L306.873 409.845L307.211 409.626L308.052 408.876L308.675 408.428L309.028 408.079L309.381 407.387L309.371 407.382ZM304.635 405.382L304.168 405.814L301.914 407.236L300.47 407.981L300.185 407.101L299.873 406.658L299.993 406.382L299.951 406.226L300.226 405.986L300.387 405.564L300.839 400.295L301.717 400.956L302.786 402.029L303.815 403.195L303.981 403.388L304.209 403.747L304.552 404.57L304.677 405.096L304.635 405.382Z" fill="#663300"/>
<path d="M325.085 410.35L324.898 410.157L323.636 408.048L322.701 406.148L320.473 400.946L320.889 400.185L321.205 399.529L321.356 399.014L320.733 397.623L320.255 396.681L320.047 396.363L319.642 396.124H319.144L317.924 397.004L315.81 398.149L314.112 398.967L313.245 399.326L312.84 399.446L312.435 399.534L311.806 399.607L311.547 399.831L311.199 400.43L311.386 400.847L311.661 401.169L312.227 401.393L313.541 401.237L315.498 400.893L315.587 401.237L315.452 401.268L315.166 401.419L314.844 401.695L314.74 402.065L314.699 402.476L314.735 402.716L314.621 402.805L311.391 408.736L311.381 408.746L310.835 408.538L310.607 408.361L310.513 408.246L310.124 407.954H309.568L309.137 408.251L308.924 408.798L309.807 410.558L310.243 411.277L310.892 412.157L312.725 413.771H313.281L313.655 413.568L313.993 413.198L314.2 412.729L314.226 412.401L314.616 412.12L315.083 411.152L318.77 410.975L322.286 411.011L322.306 411.131L322.28 411.245L322.156 411.475L321.969 411.672L321.834 411.792L320.837 412.151L320.624 412.375L320.343 413.032L320.624 413.469L320.967 413.75L321.559 413.943L322 413.839L322.935 413.396L324.435 412.849L325.235 412.594L325.557 412.558L326.128 412.282L326.31 411.735L326.159 411.219L325.09 410.345L325.085 410.35ZM318.682 408.954L316.059 409.069L316.018 408.985L316.47 408.71L316.62 408.194L316.547 407.694L316.485 407.632L316.916 407.423L318.053 405.252L318.988 403.549L321.429 408.715L318.692 408.954H318.682Z" fill="#663300"/>
<path d="M211.049 396.598L210.737 396.327L210.379 396.144L209.772 396.061L208.967 396.087L207.341 396.322L206.531 396.504L205.513 396.868V399.534L205.815 399.456L205.83 399.649L205.737 400.159L205.846 400.644L206.116 400.956L205.95 401.112L205.633 401.617V402.112L205.68 402.56V402.976L205.513 405.117V413.198L205.783 413.344L206.157 413.453L206.438 413.583L207.419 413.781L208.416 413.854H209.361L209.896 413.729L210.389 413.469L210.634 413.104L210.685 412.99L210.758 412.625L210.691 409.741L210.737 406.778L210.556 406.34V406.158L210.644 405.82L210.717 405.314L210.685 405.002L210.493 404.57L210.223 404.309L210.203 404.08L210.156 403.898L210.898 403.164L211.002 402.7L210.981 399.904L211.044 398.967L211.106 398.04L211.153 397.295L211.168 397.113L211.049 396.598Z" fill="#663300"/>
</g>
<defs>
<clipPath id="clip0_502_414">
<rect width="350" height="414" fill="white"/>
</clipPath>
</defs>
</svg>
