<svg width="35" height="31" viewBox="0 0 35 31" fill="none" xmlns="http://www.w3.org/2000/svg">
<path d="M12.55 27.0998H7.6C3.95492 27.0998 1 24.503 1 21.2998V8.24983C1 5.04658 3.95492 2.44983 7.6 2.44983H25.75C29.395 2.44983 32.35 5.04658 32.35 8.24983V12.5998" stroke="#BD3E1E" stroke-width="2" stroke-linecap="round" stroke-linejoin="round"/>
<path d="M10.9 0.999878V3.89988" stroke="#BD3E1E" stroke-width="2" stroke-linecap="round" stroke-linejoin="round"/>
<path d="M22.45 0.999878V3.89988" stroke="#BD3E1E" stroke-width="2" stroke-linecap="round" stroke-linejoin="round"/>
<path d="M1 9.70032H32.35" stroke="#BD3E1E" stroke-width="2" stroke-linecap="round" stroke-linejoin="round"/>
<path d="M28.225 20.7822L25.75 22.9572" stroke="#BD3E1E" stroke-width="2" stroke-linecap="round" stroke-linejoin="round"/>
<path d="M25.75 30C30.3063 30 34 26.7541 34 22.75C34 18.7459 30.3063 15.5 25.75 15.5C21.1937 15.5 17.5 18.7459 17.5 22.75C17.5 26.7541 21.1937 30 25.75 30Z" stroke="#BD3E1E" stroke-width="2" stroke-linecap="round" stroke-linejoin="round"/>
</svg>
